<svg xmlns="http://www.w3.org/2000/svg" width="58" height="160.49520874023438" viewBox="71 19.752395629882812 58 160.49520874023438"><title>Neo4j Graph Visualization</title><desc>Created using Neo4j (http://www.neo4j.com/)</desc><g class="layer relationships"><g class="relationship" transform="translate(100 151.24760399878693) rotate(270)"><path class="outline" fill="#A5ABB6" stroke="none" d="M 24.018736134675446,6.953439040707552 L 24.277555179777966,5.987513214418485 A 96.68382922727055 96.68382922727055 0 0 0 26.793039580125363,6.6254783483230995 L 26.560238168172585,7.598002642411828 A 97.68382922727055 97.68382922727055 0 0 1 24.018736134675446,6.953439040707552 Z M 68.87982385976966,8.299761080818271 L 68.6793950633413,7.320052809156607 A 96.68382922727055 96.68382922727055 0 0 0 71.21464856940673,6.76584080960059 L 70.53469586560989,3.843912624206676 L 78.14580645262534,5.666272531640292 L 72.12125217446918,10.661745056792476 L 71.44129947067233,7.739816871398562 A 97.68382922727055 97.68382922727055 0 0 1 68.87982385976966,8.299761080818271"/><text text-anchor="middle" pointer-events="none" font-size="8px" fill="#000000" x="47.68985619746883" y="12.768576022467315" font-family="sans-serif">FLIGHT…</text></g><g class="relationship" transform="translate(100 48.752396001212325) rotate(450)"><path class="outline" fill="#A5ABB6" stroke="none" d="M 24.018736134675446,6.953439040707552 L 24.277555179777966,5.987513214418485 A 96.68382922727055 96.68382922727055 0 0 0 26.793039580125363,6.6254783483230995 L 26.560238168172585,7.598002642411828 A 97.68382922727055 97.68382922727055 0 0 1 24.018736134675446,6.953439040707552 Z M 68.87982385976966,8.299761080818271 L 68.6793950633413,7.320052809156607 A 96.68382922727055 96.68382922727055 0 0 0 71.21464856940673,6.76584080960059 L 70.53469586560989,3.843912624206676 L 78.14580645262534,5.666272531640292 L 72.12125217446918,10.661745056792476 L 71.44129947067233,7.739816871398562 A 97.68382922727055 97.68382922727055 0 0 1 68.87982385976966,8.299761080818271"/><text text-anchor="middle" pointer-events="none" font-size="8px" fill="#000000" x="47.68985619746883" y="12.768576022467315" font-family="sans-serif">FLIGHT…</text></g></g><g class="layer nodes"><g class="node" transform="translate(100,151.24760399878693)"><circle class="outline" cx="0" cy="0" r="25" fill="#F79767" stroke="#f36924" stroke-width="2px"/><text text-anchor="middle" pointer-events="none" font-family="sans-serif" dy="1.5625" font-size="25" fill="#FFFFFF"/><text text-anchor="middle" pointer-events="none" x="0" y="5" font-size="10px" fill="#FFFFFF" font-family="sans-serif"> DEN</text></g><g class="node" transform="translate(100,48.752396001212325)"><circle class="outline" cx="0" cy="0" r="25" fill="#F79767" stroke="#f36924" stroke-width="2px"/><text text-anchor="middle" pointer-events="none" font-family="sans-serif" dy="1.5625" font-size="25" fill="#FFFFFF"/><text text-anchor="middle" pointer-events="none" x="0" y="5" font-size="10px" fill="#FFFFFF" font-family="sans-serif"> SEA</text></g></g></svg>