<svg xmlns="http://www.w3.org/2000/svg" width="481.31744384765625" height="483.0115051269531" viewBox="-181.31153869628906 -139.69699096679688 481.31744384765625 483.0115051269531"><title>Neo4j Graph Visualization</title><desc>Created using Neo4j (http://www.neo4j.com/)</desc><g class="layer relationships"><g class="relationship" transform="translate(46.84699676360311 91.66188051250282) rotate(407.55245252280383)"><path class="outline" fill="#A5ABB6" stroke="none" d="M 25 0.5 L 42.24838337609778 0.5 L 42.24838337609778 -0.5 L 25 -0.5 Z M 87.81088337609778 0.5 L 105.05926675219555 0.5 L 105.05926675219555 3.5 L 112.05926675219555 0 L 105.05926675219555 -3.5 L 105.05926675219555 -0.5 L 87.81088337609778 -0.5 Z"/><text text-anchor="middle" pointer-events="none" font-size="8px" fill="#000000" x="65.02963337609778" y="3" font-family="sans-serif">ACTED_IN</text></g><g class="relationship" transform="translate(46.84699676360311 91.66188051250282) rotate(321.4039197508419)"><path class="outline" fill="#A5ABB6" stroke="none" d="M 25 0.5 L 41.07573597631003 0.5 L 41.07573597631003 -0.5 L 25 -0.5 Z M 86.63823597631003 0.5 L 102.71397195262006 0.5 L 102.71397195262006 3.5 L 109.71397195262006 0 L 102.71397195262006 -3.5 L 102.71397195262006 -0.5 L 86.63823597631003 -0.5 Z"/><text text-anchor="middle" pointer-events="none" font-size="8px" fill="#000000" x="63.85698597631003" y="3" font-family="sans-serif">ACTED_IN</text></g><g class="relationship" transform="translate(46.84699676360311 91.66188051250282) rotate(231.04631816916805)"><path class="outline" fill="#A5ABB6" stroke="none" d="M 25 0.5 L 47.089405228157986 0.5 L 47.089405228157986 -0.5 L 25 -0.5 Z M 92.65190522815799 0.5 L 114.74131045631597 0.5 L 114.74131045631597 3.5 L 121.74131045631597 0 L 114.74131045631597 -3.5 L 114.74131045631597 -0.5 L 92.65190522815799 -0.5 Z"/><text text-anchor="middle" pointer-events="none" font-size="8px" fill="#000000" x="69.87065522815799" y="3" transform="rotate(180 69.87065522815799 0)" font-family="sans-serif">ACTED_IN</text></g><g class="relationship" transform="translate(46.84699676360311 91.66188051250282) rotate(519.2142303856057)"><path class="outline" fill="#A5ABB6" stroke="none" d="M 25 0.5 L 49.36285379035597 0.5 L 49.36285379035597 -0.5 L 25 -0.5 Z M 94.92535379035597 0.5 L 119.28820758071194 0.5 L 119.28820758071194 3.5 L 126.28820758071194 0 L 119.28820758071194 -3.5 L 119.28820758071194 -0.5 L 94.92535379035597 -0.5 Z"/><text text-anchor="middle" pointer-events="none" font-size="8px" fill="#000000" x="72.14410379035597" y="3" transform="rotate(180 72.14410379035597 0)" font-family="sans-serif">ACTED_IN</text></g><g class="relationship" transform="translate(46.84699676360311 91.66188051250282) rotate(498.5534086163975)"><path class="outline" fill="#A5ABB6" stroke="none" d="M 25 0.5 L 30.89753408218919 0.5 L 30.89753408218919 -0.5 L 25 -0.5 Z M 76.4600340821892 0.5 L 82.35756816437838 0.5 L 82.35756816437838 3.5 L 89.35756816437838 0 L 82.35756816437838 -3.5 L 82.35756816437838 -0.5 L 76.4600340821892 -0.5 Z"/><text text-anchor="middle" pointer-events="none" font-size="8px" fill="#000000" x="53.67878408218919" y="3" transform="rotate(180 53.67878408218919 0)" font-family="sans-serif">ACTED_IN</text></g><g class="relationship" transform="translate(222.12653480511935 286.3068853947095) rotate(228.48423053893623)"><path class="outline" fill="#A5ABB6" stroke="none" d="M 25 0.5 L 36.16060312788464 0.5 L 36.16060312788464 -0.5 L 25 -0.5 Z M 81.72310312788464 0.5 L 92.88370625576928 0.5 L 92.88370625576928 3.5 L 99.88370625576928 0 L 92.88370625576928 -3.5 L 92.88370625576928 -0.5 L 81.72310312788464 -0.5 Z"/><text text-anchor="middle" pointer-events="none" font-size="8px" fill="#000000" x="58.94185312788464" y="3" transform="rotate(180 58.94185312788464 0)" font-family="sans-serif">ACTED_IN</text></g><g class="relationship" transform="translate(130.67306489392024 314.3145159679312) rotate(274.08443531659316)"><path class="outline" fill="#A5ABB6" stroke="none" d="M 25 0.5 L 34.632068519221825 0.5 L 34.632068519221825 -0.5 L 25 -0.5 Z M 80.19456851922183 0.5 L 89.82663703844365 0.5 L 89.82663703844365 3.5 L 96.82663703844365 0 L 89.82663703844365 -3.5 L 89.82663703844365 -0.5 L 80.19456851922183 -0.5 Z"/><text text-anchor="middle" pointer-events="none" font-size="8px" fill="#000000" x="57.413318519221825" y="3" font-family="sans-serif">ACTED_IN</text></g><g class="relationship" transform="translate(262.271055240796 205.28178968633088) rotate(185.79938247087614)"><path class="outline" fill="#A5ABB6" stroke="none" d="M 25 0.5 L 35.49528859810686 0.5 L 35.49528859810686 -0.5 L 25 -0.5 Z M 81.05778859810687 0.5 L 91.55307719621372 0.5 L 91.55307719621372 3.5 L 98.55307719621372 0 L 91.55307719621372 -3.5 L 91.55307719621372 -0.5 L 81.05778859810687 -0.5 Z"/><text text-anchor="middle" pointer-events="none" font-size="8px" fill="#000000" x="58.27653859810686" y="3" transform="rotate(180 58.27653859810686 0)" font-family="sans-serif">ACTED_IN</text></g><g class="relationship" transform="translate(265.79775425272743 51.49341232191934) rotate(201.1046583735067)"><path class="outline" fill="#A5ABB6" stroke="none" d="M 25 0.5 L 34.63649302545385 0.5 L 34.63649302545385 -0.5 L 25 -0.5 Z M 80.19899302545386 0.5 L 89.8354860509077 0.5 L 89.8354860509077 3.5 L 96.8354860509077 0 L 89.8354860509077 -3.5 L 89.8354860509077 -0.5 L 80.19899302545386 -0.5 Z"/><text text-anchor="middle" pointer-events="none" font-size="8px" fill="#000000" x="57.41774302545385" y="3" transform="rotate(180 57.41774302545385 0)" font-family="sans-serif">ACTED_IN</text></g><g class="relationship" transform="translate(271.00588109129825 -32.80819848734146) rotate(521.2151818197428)"><path class="outline" fill="#A5ABB6" stroke="none" d="M 25 0.5 L 36.49843793718449 0.5 L 36.49843793718449 -0.5 L 25 -0.5 Z M 82.06093793718449 0.5 L 93.55937587436898 0.5 L 93.55937587436898 3.5 L 100.55937587436898 0 L 93.55937587436898 -3.5 L 93.55937587436898 -0.5 L 82.06093793718449 -0.5 Z"/><text text-anchor="middle" pointer-events="none" font-size="8px" fill="#000000" x="59.27968793718449" y="3" transform="rotate(180 59.27968793718449 0)" font-family="sans-serif">ACTED_IN</text></g><g class="relationship" transform="translate(121.8481623087592 -110.69699593019841) rotate(435.6423944553772)"><path class="outline" fill="#A5ABB6" stroke="none" d="M 25 0.5 L 34.786474262567936 0.5 L 34.786474262567936 -0.5 L 25 -0.5 Z M 80.34897426256794 0.5 L 90.13544852513587 0.5 L 90.13544852513587 3.5 L 97.13544852513587 0 L 90.13544852513587 -3.5 L 90.13544852513587 -0.5 L 80.34897426256794 -0.5 Z"/><text text-anchor="middle" pointer-events="none" font-size="8px" fill="#000000" x="57.567724262567936" y="3" font-family="sans-serif">ACTED_IN</text></g><g class="relationship" transform="translate(213.69384905637702 -99.64650731277278) rotate(479.85029068116364)"><path class="outline" fill="#A5ABB6" stroke="none" d="M 25 0.5 L 35.55820406986548 0.5 L 35.55820406986548 -0.5 L 25 -0.5 Z M 81.12070406986548 0.5 L 91.67890813973096 0.5 L 91.67890813973096 3.5 L 98.67890813973096 0 L 91.67890813973096 -3.5 L 91.67890813973096 -0.5 L 81.12070406986548 -0.5 Z"/><text text-anchor="middle" pointer-events="none" font-size="8px" fill="#000000" x="58.33945406986548" y="3" transform="rotate(180 58.33945406986548 0)" font-family="sans-serif">ACTED_IN</text></g><g class="relationship" transform="translate(-96.8097827136615 50.814073487265375) rotate(305.05251242440306)"><path class="outline" fill="#A5ABB6" stroke="none" d="M 25 0.5 L 26.2495105625746 0.5 L 26.2495105625746 -0.5 L 25 -0.5 Z M 56.2495105625746 0.5 L 57.4990211251492 0.5 L 57.4990211251492 3.5 L 64.4990211251492 0 L 57.4990211251492 -3.5 L 57.4990211251492 -0.5 L 56.2495105625746 -0.5 Z"/><text text-anchor="middle" pointer-events="none" font-size="8px" fill="#000000" x="41.2495105625746" y="3" font-family="sans-serif">ACT…</text></g><g class="relationship" transform="translate(-96.8097827136615 50.814073487265375) rotate(448.6575891304928)"><path class="outline" fill="#A5ABB6" stroke="none" d="M 25 0.5 L 26.11309547624223 0.5 L 26.11309547624223 -0.5 L 25 -0.5 Z M 61.44903297624223 0.5 L 62.56212845248446 0.5 L 62.56212845248446 3.5 L 69.56212845248446 0 L 62.56212845248446 -3.5 L 62.56212845248446 -0.5 L 61.44903297624223 -0.5 Z"/><text text-anchor="middle" pointer-events="none" font-size="8px" fill="#000000" x="43.78106422624223" y="3" font-family="sans-serif">ACTE…</text></g><g class="relationship" transform="translate(-96.8097827136615 50.814073487265375) rotate(423.5665994994463)"><path class="outline" fill="#A5ABB6" stroke="none" d="M 25 0.5 L 38.793985888804755 0.5 L 38.793985888804755 -0.5 L 25 -0.5 Z M 84.35648588880476 0.5 L 98.15047177760951 0.5 L 98.15047177760951 3.5 L 105.15047177760951 0 L 98.15047177760951 -3.5 L 98.15047177760951 -0.5 L 84.35648588880476 -0.5 Z"/><text text-anchor="middle" pointer-events="none" font-size="8px" fill="#000000" x="61.575235888804755" y="3" font-family="sans-serif">ACTED_IN</text></g><g class="relationship" transform="translate(-22.93714902293319 67.72953072718576) rotate(256.0083063479248)"><path class="outline" fill="#A5ABB6" stroke="none" d="M 25 0.5 L 25.30158823622677 0.5 L 25.30158823622677 -0.5 L 25 -0.5 Z M 60.63752573622677 0.5 L 60.93911397245354 0.5 L 60.93911397245354 3.5 L 67.93911397245354 0 L 60.93911397245354 -3.5 L 60.93911397245354 -0.5 L 60.63752573622677 -0.5 Z"/><text text-anchor="middle" pointer-events="none" font-size="8px" fill="#000000" x="42.96955698622677" y="3" transform="rotate(180 42.96955698622677 0)" font-family="sans-serif">ACTE…</text></g><g class="relationship" transform="translate(-22.93714902293319 67.72953072718576) rotate(492.71233933651774)"><path class="outline" fill="#A5ABB6" stroke="none" d="M 25 0.5 L 26.53859387021592 0.5 L 26.53859387021592 -0.5 L 25 -0.5 Z M 72.10109387021592 0.5 L 73.63968774043184 0.5 L 73.63968774043184 3.5 L 80.63968774043184 0 L 73.63968774043184 -3.5 L 73.63968774043184 -0.5 L 72.10109387021592 -0.5 Z"/><text text-anchor="middle" pointer-events="none" font-size="8px" fill="#000000" x="49.31984387021592" y="3" transform="rotate(180 49.31984387021592 0)" font-family="sans-serif">ACTED_IN</text></g><g class="relationship" transform="translate(-22.93714902293319 67.72953072718576) rotate(459.08731124964777)"><path class="outline" fill="#A5ABB6" stroke="none" d="M 25 0.5 L 26.390580208650874 0.5 L 26.390580208650874 -0.5 L 25 -0.5 Z M 67.50386145865087 0.5 L 68.89444166730175 0.5 L 68.89444166730175 3.5 L 75.89444166730175 0 L 68.89444166730175 -3.5 L 68.89444166730175 -0.5 L 67.50386145865087 -0.5 Z"/><text text-anchor="middle" pointer-events="none" font-size="8px" fill="#000000" x="46.947220833650874" y="3" transform="rotate(180 46.947220833650874 0)" font-family="sans-serif">ACTED…</text></g><g class="relationship" transform="translate(-152.31153417155622 73.38481854192604) rotate(318.124359836752)"><path class="outline" fill="#A5ABB6" stroke="none" d="M 25 0.5 L 45.50501819653158 0.5 L 45.50501819653158 -0.5 L 25 -0.5 Z M 91.06751819653158 0.5 L 111.57253639306316 0.5 L 111.57253639306316 3.5 L 118.57253639306316 0 L 111.57253639306316 -3.5 L 111.57253639306316 -0.5 L 91.06751819653158 -0.5 Z"/><text text-anchor="middle" pointer-events="none" font-size="8px" fill="#000000" x="68.28626819653158" y="3" font-family="sans-serif">ACTED_IN</text></g><g class="relationship" transform="translate(-152.31153417155622 73.38481854192604) rotate(411.26999149770626)"><path class="outline" fill="#A5ABB6" stroke="none" d="M 25 0.5 L 27.625604977408315 0.5 L 27.625604977408315 -0.5 L 25 -0.5 Z M 57.625604977408315 0.5 L 60.25120995481663 0.5 L 60.25120995481663 3.5 L 67.25120995481663 0 L 60.25120995481663 -3.5 L 60.25120995481663 -0.5 L 57.625604977408315 -0.5 Z"/><text text-anchor="middle" pointer-events="none" font-size="8px" fill="#000000" x="42.625604977408315" y="3" font-family="sans-serif">ACT…</text></g><g class="relationship" transform="translate(-152.31153417155622 73.38481854192604) rotate(399.638288553312)"><path class="outline" fill="#A5ABB6" stroke="none" d="M 25 0.5 L 47.37222232844381 0.5 L 47.37222232844381 -0.5 L 25 -0.5 Z M 92.93472232844381 0.5 L 115.30694465688762 0.5 L 115.30694465688762 3.5 L 122.30694465688762 0 L 115.30694465688762 -3.5 L 115.30694465688762 -0.5 L 92.93472232844381 -0.5 Z"/><text text-anchor="middle" pointer-events="none" font-size="8px" fill="#000000" x="70.15347232844381" y="3" font-family="sans-serif">ACTED_IN</text></g><g class="relationship" transform="translate(-71.787720634226 285.7771830877981) rotate(285.5335630072571)"><path class="outline" fill="#A5ABB6" stroke="none" d="M 25 0.5 L 35.173230182748796 0.5 L 35.173230182748796 -0.5 L 25 -0.5 Z M 80.7357301827488 0.5 L 90.90896036549759 0.5 L 90.90896036549759 3.5 L 97.90896036549759 0 L 90.90896036549759 -3.5 L 90.90896036549759 -0.5 L 80.7357301827488 -0.5 Z"/><text text-anchor="middle" pointer-events="none" font-size="8px" fill="#000000" x="57.954480182748796" y="3" font-family="sans-serif">ACTED_IN</text></g></g><g class="layer nodes"><g class="node" transform="translate(46.84699676360311,91.66188051250282)"><circle class="outline" cx="0" cy="0" r="25" fill="#F79767" stroke="#f36924" stroke-width="2px"/><text text-anchor="middle" pointer-events="none" font-family="sans-serif" dy="1.5625" font-size="25" fill="#FFFFFF"/><text text-anchor="middle" pointer-events="none" font-family="sans-serif" dy="1.5625" font-size="25" fill="#FFFFFF"/><text text-anchor="middle" pointer-events="none" x="0" y="0" font-size="10px" fill="#FFFFFF" font-family="sans-serif"> Hugo</text><text text-anchor="middle" pointer-events="none" x="0" y="10" font-size="10px" fill="#FFFFFF" font-family="sans-serif"> Weaving</text></g><g class="node" transform="translate(139.35034765790158,192.79729802771251)"><circle class="outline" cx="0" cy="0" r="25" fill="#57C7E3" stroke="#23b3d7" stroke-width="2px"/><text text-anchor="middle" pointer-events="none" font-family="sans-serif" dy="1.5625" font-size="25" fill="#2A2C34"/><text text-anchor="middle" pointer-events="none" font-family="sans-serif" dy="1.5625" font-size="25" fill="#2A2C34"/><text text-anchor="middle" pointer-events="none" x="0" y="0" font-size="10px" fill="#2A2C34" font-family="sans-serif"> Cloud</text><text text-anchor="middle" pointer-events="none" x="0" y="10" font-size="10px" fill="#2A2C34" font-family="sans-serif"> Atlas</text></g><g class="node" transform="translate(222.12653480511935,286.3068853947095)"><circle class="outline" cx="0" cy="0" r="25" fill="#F79767" stroke="#f36924" stroke-width="2px"/><text text-anchor="middle" pointer-events="none" font-family="sans-serif" dy="1.5625" font-size="25" fill="#FFFFFF"/><text text-anchor="middle" pointer-events="none" font-family="sans-serif" dy="1.5625" font-size="25" fill="#FFFFFF"/><text text-anchor="middle" pointer-events="none" x="0" y="0" font-size="10px" fill="#FFFFFF" font-family="sans-serif"> Tom</text><text text-anchor="middle" pointer-events="none" x="0" y="10" font-size="10px" fill="#FFFFFF" font-family="sans-serif"> Hanks</text></g><g class="node" transform="translate(130.67306489392024,314.3145159679312)"><circle class="outline" cx="0" cy="0" r="25" fill="#F79767" stroke="#f36924" stroke-width="2px"/><text text-anchor="middle" pointer-events="none" font-family="sans-serif" dy="1.5625" font-size="25" fill="#FFFFFF"/><text text-anchor="middle" pointer-events="none" font-family="sans-serif" dy="1.5625" font-size="25" fill="#FFFFFF"/><text text-anchor="middle" pointer-events="none" x="0" y="0" font-size="10px" fill="#FFFFFF" font-family="sans-serif"> Jim</text><text text-anchor="middle" pointer-events="none" x="0" y="10" font-size="10px" fill="#FFFFFF" font-family="sans-serif"> Broadb…</text></g><g class="node" transform="translate(262.271055240796,205.28178968633088)"><circle class="outline" cx="0" cy="0" r="25" fill="#F79767" stroke="#f36924" stroke-width="2px"/><text text-anchor="middle" pointer-events="none" font-family="sans-serif" dy="1.5625" font-size="25" fill="#FFFFFF"/><text text-anchor="middle" pointer-events="none" font-family="sans-serif" dy="1.5625" font-size="25" fill="#FFFFFF"/><text text-anchor="middle" pointer-events="none" x="0" y="0" font-size="10px" fill="#FFFFFF" font-family="sans-serif"> Halle</text><text text-anchor="middle" pointer-events="none" x="0" y="10" font-size="10px" fill="#FFFFFF" font-family="sans-serif"> Berry</text></g><g class="node" transform="translate(152.1344732729138,7.623784808514786)"><circle class="outline" cx="0" cy="0" r="25" fill="#57C7E3" stroke="#23b3d7" stroke-width="2px"/><text text-anchor="middle" pointer-events="none" font-family="sans-serif" dy="1.5625" font-size="25" fill="#2A2C34"/><text text-anchor="middle" pointer-events="none" font-family="sans-serif" dy="1.5625" font-size="25" fill="#2A2C34"/><text text-anchor="middle" pointer-events="none" x="0" y="0" font-size="10px" fill="#2A2C34" font-family="sans-serif"> V for</text><text text-anchor="middle" pointer-events="none" x="0" y="10" font-size="10px" fill="#2A2C34" font-family="sans-serif"> Vendetta</text></g><g class="node" transform="translate(265.79775425272743,51.49341232191934)"><circle class="outline" cx="0" cy="0" r="25" fill="#F79767" stroke="#f36924" stroke-width="2px"/><text text-anchor="middle" pointer-events="none" font-family="sans-serif" dy="1.5625" font-size="25" fill="#FFFFFF"/><text text-anchor="middle" pointer-events="none" x="0" y="5" font-size="10px" fill="#FFFFFF" font-family="sans-serif"> John Hurt</text></g><g class="node" transform="translate(271.00588109129825,-32.80819848734146)"><circle class="outline" cx="0" cy="0" r="25" fill="#F79767" stroke="#f36924" stroke-width="2px"/><text text-anchor="middle" pointer-events="none" font-family="sans-serif" dy="1.5625" font-size="25" fill="#FFFFFF"/><text text-anchor="middle" pointer-events="none" font-family="sans-serif" dy="1.5625" font-size="25" fill="#FFFFFF"/><text text-anchor="middle" pointer-events="none" x="0" y="0" font-size="10px" fill="#FFFFFF" font-family="sans-serif"> Stephen</text><text text-anchor="middle" pointer-events="none" x="0" y="10" font-size="10px" fill="#FFFFFF" font-family="sans-serif"> Rea</text></g><g class="node" transform="translate(121.8481623087592,-110.69699593019841)"><circle class="outline" cx="0" cy="0" r="25" fill="#F79767" stroke="#f36924" stroke-width="2px"/><text text-anchor="middle" pointer-events="none" font-family="sans-serif" dy="1.5625" font-size="25" fill="#FFFFFF"/><text text-anchor="middle" pointer-events="none" font-family="sans-serif" dy="1.5625" font-size="25" fill="#FFFFFF"/><text text-anchor="middle" pointer-events="none" x="0" y="0" font-size="10px" fill="#FFFFFF" font-family="sans-serif"> Natalie</text><text text-anchor="middle" pointer-events="none" x="0" y="10" font-size="10px" fill="#FFFFFF" font-family="sans-serif"> Portman</text></g><g class="node" transform="translate(213.69384905637702,-99.64650731277278)"><circle class="outline" cx="0" cy="0" r="25" fill="#F79767" stroke="#f36924" stroke-width="2px"/><text text-anchor="middle" pointer-events="none" font-family="sans-serif" dy="1.5625" font-size="25" fill="#FFFFFF"/><text text-anchor="middle" pointer-events="none" x="0" y="5" font-size="10px" fill="#FFFFFF" font-family="sans-serif"> Ben Miles</text></g><g class="node" transform="translate(-45.40808196662143,-22.45215299309623)"><circle class="outline" cx="0" cy="0" r="25" fill="#57C7E3" stroke="#23b3d7" stroke-width="2px"/><text text-anchor="middle" pointer-events="none" font-family="sans-serif" dy="1.5625" font-size="25" fill="#2A2C34"/><text text-anchor="middle" pointer-events="none" font-family="sans-serif" dy="1.5625" font-size="25" fill="#2A2C34"/><text text-anchor="middle" pointer-events="none" font-family="sans-serif" dy="1.5625" font-size="25" fill="#2A2C34"/><text text-anchor="middle" pointer-events="none" x="0" y="-5" font-size="10px" fill="#2A2C34" font-family="sans-serif"> The</text><text text-anchor="middle" pointer-events="none" x="0" y="5" font-size="10px" fill="#2A2C34" font-family="sans-serif"> Matrix</text><text text-anchor="middle" pointer-events="none" x="0" y="15" font-size="10px" fill="#2A2C34" font-family="sans-serif"> Revol…</text></g><g class="node" transform="translate(-96.8097827136615,50.814073487265375)"><circle class="outline" cx="0" cy="0" r="25" fill="#F79767" stroke="#f36924" stroke-width="2px"/><text text-anchor="middle" pointer-events="none" font-family="sans-serif" dy="1.5625" font-size="25" fill="#FFFFFF"/><text text-anchor="middle" pointer-events="none" font-family="sans-serif" dy="1.5625" font-size="25" fill="#FFFFFF"/><text text-anchor="middle" pointer-events="none" x="0" y="0" font-size="10px" fill="#FFFFFF" font-family="sans-serif"> Laurence</text><text text-anchor="middle" pointer-events="none" x="0" y="10" font-size="10px" fill="#FFFFFF" font-family="sans-serif"> Fishbur…</text></g><g class="node" transform="translate(-22.93714902293319,67.72953072718576)"><circle class="outline" cx="0" cy="0" r="25" fill="#F79767" stroke="#f36924" stroke-width="2px"/><text text-anchor="middle" pointer-events="none" font-family="sans-serif" dy="1.5625" font-size="25" fill="#FFFFFF"/><text text-anchor="middle" pointer-events="none" x="0" y="5" font-size="10px" fill="#FFFFFF" font-family="sans-serif"> Carrie-A…</text></g><g class="node" transform="translate(-152.31153417155622,73.38481854192604)"><circle class="outline" cx="0" cy="0" r="25" fill="#F79767" stroke="#f36924" stroke-width="2px"/><text text-anchor="middle" pointer-events="none" font-family="sans-serif" dy="1.5625" font-size="25" fill="#FFFFFF"/><text text-anchor="middle" pointer-events="none" font-family="sans-serif" dy="1.5625" font-size="25" fill="#FFFFFF"/><text text-anchor="middle" pointer-events="none" x="0" y="0" font-size="10px" fill="#FFFFFF" font-family="sans-serif"> Keanu</text><text text-anchor="middle" pointer-events="none" x="0" y="10" font-size="10px" fill="#FFFFFF" font-family="sans-serif"> Reeves</text></g><g class="node" transform="translate(-94.59444300448972,145.35024861317757)"><circle class="outline" cx="0" cy="0" r="25" fill="#57C7E3" stroke="#23b3d7" stroke-width="2px"/><text text-anchor="middle" pointer-events="none" font-family="sans-serif" dy="1.5625" font-size="25" fill="#2A2C34"/><text text-anchor="middle" pointer-events="none" font-family="sans-serif" dy="1.5625" font-size="25" fill="#2A2C34"/><text text-anchor="middle" pointer-events="none" font-family="sans-serif" dy="1.5625" font-size="25" fill="#2A2C34"/><text text-anchor="middle" pointer-events="none" x="0" y="-5" font-size="10px" fill="#2A2C34" font-family="sans-serif"> The</text><text text-anchor="middle" pointer-events="none" x="0" y="5" font-size="10px" fill="#2A2C34" font-family="sans-serif"> Matrix</text><text text-anchor="middle" pointer-events="none" x="0" y="15" font-size="10px" fill="#2A2C34" font-family="sans-serif"> Reloa…</text></g><g class="node" transform="translate(-38.87235561953582,167.35762691536024)"><circle class="outline" cx="0" cy="0" r="25" fill="#57C7E3" stroke="#23b3d7" stroke-width="2px"/><text text-anchor="middle" pointer-events="none" font-family="sans-serif" dy="1.5625" font-size="25" fill="#2A2C34"/><text text-anchor="middle" pointer-events="none" font-family="sans-serif" dy="1.5625" font-size="25" fill="#2A2C34"/><text text-anchor="middle" pointer-events="none" x="0" y="0" font-size="10px" fill="#2A2C34" font-family="sans-serif"> The</text><text text-anchor="middle" pointer-events="none" x="0" y="10" font-size="10px" fill="#2A2C34" font-family="sans-serif"> Matrix</text></g><g class="node" transform="translate(-71.787720634226,285.7771830877981)"><circle class="outline" cx="0" cy="0" r="25" fill="#F79767" stroke="#f36924" stroke-width="2px"/><text text-anchor="middle" pointer-events="none" font-family="sans-serif" dy="1.5625" font-size="25" fill="#FFFFFF"/><text text-anchor="middle" pointer-events="none" font-family="sans-serif" dy="1.5625" font-size="25" fill="#FFFFFF"/><text text-anchor="middle" pointer-events="none" x="0" y="0" font-size="10px" fill="#FFFFFF" font-family="sans-serif"> Emil</text><text text-anchor="middle" pointer-events="none" x="0" y="10" font-size="10px" fill="#FFFFFF" font-family="sans-serif"> Eifrem</text></g></g></svg>