<svg xmlns="http://www.w3.org/2000/svg" width="435.175537109375" height="454.3741760253906" viewBox="-129.9169464111328 -86.3414306640625 435.175537109375 454.3741760253906"><title>Neo4j Graph Visualization</title><desc>Created using Neo4j (http://www.neo4j.com/)</desc><g class="layer relationships"><g class="relationship" transform="translate(213.4316813786161 167.38187793227806) rotate(188.50829008613266)"><path class="outline" fill="#A5ABB6" stroke="none" d="M 25 0.5 L 39.72526493532784 0.5 L 39.72526493532784 -0.5 L 25 -0.5 Z M 85.28776493532784 0.5 L 100.01302987065569 0.5 L 100.01302987065569 3.5 L 107.01302987065569 0 L 100.01302987065569 -3.5 L 100.01302987065569 -0.5 L 85.28776493532784 -0.5 Z"/><text text-anchor="middle" pointer-events="none" font-size="8px" fill="#000000" x="62.50651493532784" y="3" transform="rotate(180 62.50651493532784 0)" font-family="sans-serif">ACTED_IN</text></g><g class="relationship" transform="translate(156.7282072380748 221.37427948060503) rotate(376.595560694443)"><path class="outline" fill="#A5ABB6" stroke="none" d="M 25 0.5 L 36.08167988086891 0.5 L 36.08167988086891 -0.5 L 25 -0.5 Z M 81.6441798808689 0.5 L 92.72585976173782 0.5 L 92.72585976173782 3.5 L 99.72585976173782 0 L 92.72585976173782 -3.5 L 92.72585976173782 -0.5 L 81.6441798808689 -0.5 Z"/><text text-anchor="middle" pointer-events="none" font-size="8px" fill="#000000" x="58.86292988086891" y="3" font-family="sans-serif">ACTED_IN</text></g><g class="relationship" transform="translate(156.7282072380748 221.37427948060503) rotate(443.5737884780065)"><path class="outline" fill="#A5ABB6" stroke="none" d="M 25 0.5 L 32.91996169343377 0.5 L 32.91996169343377 -0.5 L 25 -0.5 Z M 78.48246169343378 0.5 L 86.40242338686754 0.5 L 86.40242338686754 3.5 L 93.40242338686754 0 L 86.40242338686754 -3.5 L 86.40242338686754 -0.5 L 78.48246169343378 -0.5 Z"/><text text-anchor="middle" pointer-events="none" font-size="8px" fill="#000000" x="55.70121169343377" y="3" font-family="sans-serif">ACTED_IN</text></g><g class="relationship" transform="translate(156.7282072380748 221.37427948060503) rotate(252.1579655503392)"><path class="outline" fill="#A5ABB6" stroke="none" d="M 25 0.5 L 38.054770302918016 0.5 L 38.054770302918016 -0.5 L 25 -0.5 Z M 83.61727030291802 0.5 L 96.67204060583603 0.5 L 96.67204060583603 3.5 L 103.67204060583603 0 L 96.67204060583603 -3.5 L 96.67204060583603 -0.5 L 83.61727030291802 -0.5 Z"/><text text-anchor="middle" pointer-events="none" font-size="8px" fill="#000000" x="60.836020302918016" y="3" transform="rotate(180 60.836020302918016 0)" font-family="sans-serif">ACTED_IN</text></g><g class="relationship" transform="translate(156.7282072380748 221.37427948060503) rotate(279.2794564529064)"><path class="outline" fill="#A5ABB6" stroke="none" d="M 25 0.5 L 37.06411217617136 0.5 L 37.06411217617136 -0.5 L 25 -0.5 Z M 82.62661217617136 0.5 L 94.69072435234273 0.5 L 94.69072435234273 3.5 L 101.69072435234273 0 L 94.69072435234273 -3.5 L 94.69072435234273 -0.5 L 82.62661217617136 -0.5 Z"/><text text-anchor="middle" pointer-events="none" font-size="8px" fill="#000000" x="59.84536217617136" y="3" font-family="sans-serif">ACTED_IN</text></g><g class="relationship" transform="translate(156.7282072380748 221.37427948060503) rotate(224.87069026809763)"><path class="outline" fill="#A5ABB6" stroke="none" d="M 25 0.5 L 25.825843934746878 0.5 L 25.825843934746878 -0.5 L 25 -0.5 Z M 71.38834393474687 0.5 L 72.21418786949376 0.5 L 72.21418786949376 3.5 L 79.21418786949376 0 L 72.21418786949376 -3.5 L 72.21418786949376 -0.5 L 71.38834393474687 -0.5 Z"/><text text-anchor="middle" pointer-events="none" font-size="8px" fill="#000000" x="48.60709393474688" y="3" transform="rotate(180 48.60709393474688 0)" font-family="sans-serif">ACTED_IN</text></g><g class="relationship" transform="translate(108.30096585255092 9.040769193288991) rotate(444.27808256352955)"><path class="outline" fill="#A5ABB6" stroke="none" d="M 25 0.5 L 26.649943738205167 0.5 L 26.649943738205167 -0.5 L 25 -0.5 Z M 56.64994373820517 0.5 L 58.29988747641033 0.5 L 58.29988747641033 3.5 L 65.29988747641033 0 L 58.29988747641033 -3.5 L 58.29988747641033 -0.5 L 56.64994373820517 -0.5 Z"/><text text-anchor="middle" pointer-events="none" font-size="8px" fill="#000000" x="41.64994373820517" y="3" font-family="sans-serif">ACT…</text></g><g class="relationship" transform="translate(108.30096585255092 9.040769193288991) rotate(411.73632781077566)"><path class="outline" fill="#A5ABB6" stroke="none" d="M 25 0.5 L 29.312317854348244 0.5 L 29.312317854348244 -0.5 L 25 -0.5 Z M 74.87481785434824 0.5 L 79.18713570869649 0.5 L 79.18713570869649 3.5 L 86.18713570869649 0 L 79.18713570869649 -3.5 L 79.18713570869649 -0.5 L 74.87481785434824 -0.5 Z"/><text text-anchor="middle" pointer-events="none" font-size="8px" fill="#000000" x="52.093567854348244" y="3" font-family="sans-serif">ACTED_IN</text></g><g class="relationship" transform="translate(108.30096585255092 9.040769193288991) rotate(460.381286651624)"><path class="outline" fill="#A5ABB6" stroke="none" d="M 25 0.5 L 44.27851148554156 0.5 L 44.27851148554156 -0.5 L 25 -0.5 Z M 89.84101148554156 0.5 L 109.11952297108311 0.5 L 109.11952297108311 3.5 L 116.11952297108311 0 L 109.11952297108311 -3.5 L 109.11952297108311 -0.5 L 89.84101148554156 -0.5 Z"/><text text-anchor="middle" pointer-events="none" font-size="8px" fill="#000000" x="67.05976148554156" y="3" transform="rotate(180 67.05976148554156 0)" font-family="sans-serif">ACTED_IN</text></g><g class="relationship" transform="translate(178.59312820332698 14.127049377337787) rotate(485.86918521089564)"><path class="outline" fill="#A5ABB6" stroke="none" d="M 25 0.5 L 26.01897103370861 0.5 L 26.01897103370861 -0.5 L 25 -0.5 Z M 71.58147103370861 0.5 L 72.60044206741722 0.5 L 72.60044206741722 3.5 L 79.60044206741722 0 L 72.60044206741722 -3.5 L 72.60044206741722 -0.5 L 71.58147103370861 -0.5 Z"/><text text-anchor="middle" pointer-events="none" font-size="8px" fill="#000000" x="48.80022103370861" y="3" transform="rotate(180 48.80022103370861 0)" font-family="sans-serif">ACTED_IN</text></g><g class="relationship" transform="translate(178.59312820332698 14.127049377337787) rotate(451.000687693696)"><path class="outline" fill="#A5ABB6" stroke="none" d="M 25 0.5 L 25.056845622366446 0.5 L 25.056845622366446 -0.5 L 25 -0.5 Z M 50.170126872366446 0.5 L 50.22697249473289 0.5 L 50.22697249473289 3.5 L 57.22697249473289 0 L 50.22697249473289 -3.5 L 50.22697249473289 -0.5 L 50.170126872366446 -0.5 Z"/><text text-anchor="middle" pointer-events="none" font-size="8px" fill="#000000" x="37.613486247366446" y="3" transform="rotate(180 37.613486247366446 0)" font-family="sans-serif">AC…</text></g><g class="relationship" transform="translate(178.59312820332698 14.127049377337787) rotate(485.5958120283284)"><path class="outline" fill="#A5ABB6" stroke="none" d="M 25 0.5 L 55.944827548136786 0.5 L 55.944827548136786 -0.5 L 25 -0.5 Z M 101.50732754813679 0.5 L 132.45215509627357 0.5 L 132.45215509627357 3.5 L 139.45215509627357 0 L 132.45215509627357 -3.5 L 132.45215509627357 -0.5 L 101.50732754813679 -0.5 Z"/><text text-anchor="middle" pointer-events="none" font-size="8px" fill="#000000" x="78.72607754813679" y="3" transform="rotate(180 78.72607754813679 0)" font-family="sans-serif">ACTED_IN</text></g><g class="relationship" transform="translate(23.289964591790067 65.03130367540889) rotate(486.2204589720603)"><path class="outline" fill="#A5ABB6" stroke="none" d="M 25 0.5 L 37.86434816203786 0.5 L 37.86434816203786 -0.5 L 25 -0.5 Z M 83.42684816203786 0.5 L 96.29119632407571 0.5 L 96.29119632407571 3.5 L 103.29119632407571 0 L 96.29119632407571 -3.5 L 96.29119632407571 -0.5 L 83.42684816203786 -0.5 Z"/><text text-anchor="middle" pointer-events="none" font-size="8px" fill="#000000" x="60.64559816203786" y="3" transform="rotate(180 60.64559816203786 0)" font-family="sans-serif">ACTED_IN</text></g><g class="relationship" transform="translate(23.289964591790067 65.03130367540889) rotate(258.1776289876019)"><path class="outline" fill="#A5ABB6" stroke="none" d="M 25 0.5 L 36.23115990280929 0.5 L 36.23115990280929 -0.5 L 25 -0.5 Z M 81.79365990280928 0.5 L 93.02481980561858 0.5 L 93.02481980561858 3.5 L 100.02481980561858 0 L 93.02481980561858 -3.5 L 93.02481980561858 -0.5 L 81.79365990280928 -0.5 Z"/><text text-anchor="middle" pointer-events="none" font-size="8px" fill="#000000" x="59.01240990280929" y="3" transform="rotate(180 59.01240990280929 0)" font-family="sans-serif">ACTED_IN</text></g><g class="relationship" transform="translate(23.289964591790067 65.03130367540889) rotate(529.1481578622743)"><path class="outline" fill="#A5ABB6" stroke="none" d="M 25 0.5 L 36.95300323567498 0.5 L 36.95300323567498 -0.5 L 25 -0.5 Z M 82.51550323567497 0.5 L 94.46850647134995 0.5 L 94.46850647134995 3.5 L 101.46850647134995 0 L 94.46850647134995 -3.5 L 94.46850647134995 -0.5 L 82.51550323567497 -0.5 Z"/><text text-anchor="middle" pointer-events="none" font-size="8px" fill="#000000" x="59.73425323567498" y="3" transform="rotate(180 59.73425323567498 0)" font-family="sans-serif">ACTED_IN</text></g><g class="relationship" transform="translate(23.289964591790067 65.03130367540889) rotate(211.7620992358015)"><path class="outline" fill="#A5ABB6" stroke="none" d="M 25 0.5 L 35.251268139267516 0.5 L 35.251268139267516 -0.5 L 25 -0.5 Z M 80.81376813926752 0.5 L 91.06503627853503 0.5 L 91.06503627853503 3.5 L 98.06503627853503 0 L 91.06503627853503 -3.5 L 91.06503627853503 -0.5 L 80.81376813926752 -0.5 Z"/><text text-anchor="middle" pointer-events="none" font-size="8px" fill="#000000" x="58.032518139267516" y="3" transform="rotate(180 58.032518139267516 0)" font-family="sans-serif">ACTED_IN</text></g><g class="relationship" transform="translate(23.289964591790067 65.03130367540889) rotate(379.80665459944726)"><path class="outline" fill="#A5ABB6" stroke="none" d="M 25 0.5 L 25.90604840141203 0.5 L 25.90604840141203 -0.5 L 25 -0.5 Z M 67.01932965141202 0.5 L 67.92537805282406 0.5 L 67.92537805282406 3.5 L 74.92537805282406 0 L 67.92537805282406 -3.5 L 67.92537805282406 -0.5 L 67.01932965141202 -0.5 Z"/><text text-anchor="middle" pointer-events="none" font-size="8px" fill="#000000" x="46.46268902641203" y="3" font-family="sans-serif">ACTED…</text></g><g class="relationship" transform="translate(23.289964591790067 65.03130367540889) rotate(371.5019875008329)"><path class="outline" fill="#A5ABB6" stroke="none" d="M 25 0.5 L 52.228967963643456 0.5 L 52.228967963643456 -0.5 L 25 -0.5 Z M 97.79146796364346 0.5 L 125.02043592728691 0.5 L 125.02043592728691 3.5 L 132.0204359272869 0 L 125.02043592728691 -3.5 L 125.02043592728691 -0.5 L 97.79146796364346 -0.5 Z"/><text text-anchor="middle" pointer-events="none" font-size="8px" fill="#000000" x="75.01021796364346" y="3" font-family="sans-serif">ACTED_IN</text></g><g class="relationship" transform="translate(23.289964591790067 65.03130367540889) rotate(414.2680152587452)"><path class="outline" fill="#A5ABB6" stroke="none" d="M 25 0.5 L 26.95545375462916 0.5 L 26.95545375462916 -0.5 L 25 -0.5 Z M 68.06873500462916 0.5 L 70.02418875925832 0.5 L 70.02418875925832 3.5 L 77.02418875925832 0 L 70.02418875925832 -3.5 L 70.02418875925832 -0.5 L 68.06873500462916 -0.5 Z"/><text text-anchor="middle" pointer-events="none" font-size="8px" fill="#000000" x="47.51209437962916" y="3" font-family="sans-serif">ACTED…</text></g></g><g class="layer nodes"><g class="node" transform="translate(82.87152532146422,147.85021886391473)"><circle class="outline" cx="0" cy="0" r="25" fill="#57C7E3" stroke="#23b3d7" stroke-width="2px"/><text text-anchor="middle" pointer-events="none" font-family="sans-serif" dy="1.5625" font-size="25" fill="#2A2C34"/><text text-anchor="middle" pointer-events="none" font-family="sans-serif" dy="1.5625" font-size="25" fill="#2A2C34"/><text text-anchor="middle" pointer-events="none" x="0" y="0" font-size="10px" fill="#2A2C34" font-family="sans-serif"> The</text><text text-anchor="middle" pointer-events="none" x="0" y="10" font-size="10px" fill="#2A2C34" font-family="sans-serif"> Matrix</text></g><g class="node" transform="translate(213.4316813786161,167.38187793227806)"><circle class="outline" cx="0" cy="0" r="25" fill="#F79767" stroke="#f36924" stroke-width="2px"/><text text-anchor="middle" pointer-events="none" font-family="sans-serif" dy="1.5625" font-size="25" fill="#FFFFFF"/><text text-anchor="middle" pointer-events="none" font-family="sans-serif" dy="1.5625" font-size="25" fill="#FFFFFF"/><text text-anchor="middle" pointer-events="none" x="0" y="0" font-size="10px" fill="#FFFFFF" font-family="sans-serif"> Emil</text><text text-anchor="middle" pointer-events="none" x="0" y="10" font-size="10px" fill="#FFFFFF" font-family="sans-serif"> Eifrem</text></g><g class="node" transform="translate(156.7282072380748,221.37427948060503)"><circle class="outline" cx="0" cy="0" r="25" fill="#F79767" stroke="#f36924" stroke-width="2px"/><text text-anchor="middle" pointer-events="none" font-family="sans-serif" dy="1.5625" font-size="25" fill="#FFFFFF"/><text text-anchor="middle" pointer-events="none" font-family="sans-serif" dy="1.5625" font-size="25" fill="#FFFFFF"/><text text-anchor="middle" pointer-events="none" x="0" y="0" font-size="10px" fill="#FFFFFF" font-family="sans-serif"> Hugo</text><text text-anchor="middle" pointer-events="none" x="0" y="10" font-size="10px" fill="#FFFFFF" font-family="sans-serif"> Weaving</text></g><g class="node" transform="translate(108.30096585255092,9.040769193288991)"><circle class="outline" cx="0" cy="0" r="25" fill="#F79767" stroke="#f36924" stroke-width="2px"/><text text-anchor="middle" pointer-events="none" font-family="sans-serif" dy="1.5625" font-size="25" fill="#FFFFFF"/><text text-anchor="middle" pointer-events="none" font-family="sans-serif" dy="1.5625" font-size="25" fill="#FFFFFF"/><text text-anchor="middle" pointer-events="none" x="0" y="0" font-size="10px" fill="#FFFFFF" font-family="sans-serif"> Laurence</text><text text-anchor="middle" pointer-events="none" x="0" y="10" font-size="10px" fill="#FFFFFF" font-family="sans-serif"> Fishbur…</text></g><g class="node" transform="translate(178.59312820332698,14.127049377337787)"><circle class="outline" cx="0" cy="0" r="25" fill="#F79767" stroke="#f36924" stroke-width="2px"/><text text-anchor="middle" pointer-events="none" font-family="sans-serif" dy="1.5625" font-size="25" fill="#FFFFFF"/><text text-anchor="middle" pointer-events="none" x="0" y="5" font-size="10px" fill="#FFFFFF" font-family="sans-serif"> Carrie-A…</text></g><g class="node" transform="translate(23.289964591790067,65.03130367540889)"><circle class="outline" cx="0" cy="0" r="25" fill="#F79767" stroke="#f36924" stroke-width="2px"/><text text-anchor="middle" pointer-events="none" font-family="sans-serif" dy="1.5625" font-size="25" fill="#FFFFFF"/><text text-anchor="middle" pointer-events="none" font-family="sans-serif" dy="1.5625" font-size="25" fill="#FFFFFF"/><text text-anchor="middle" pointer-events="none" x="0" y="0" font-size="10px" fill="#FFFFFF" font-family="sans-serif"> Keanu</text><text text-anchor="middle" pointer-events="none" x="0" y="10" font-size="10px" fill="#FFFFFF" font-family="sans-serif"> Reeves</text></g><g class="node" transform="translate(177.15708287883987,96.34148107564474)"><circle class="outline" cx="0" cy="0" r="25" fill="#57C7E3" stroke="#23b3d7" stroke-width="2px"/><text text-anchor="middle" pointer-events="none" font-family="sans-serif" dy="1.5625" font-size="25" fill="#2A2C34"/><text text-anchor="middle" pointer-events="none" font-family="sans-serif" dy="1.5625" font-size="25" fill="#2A2C34"/><text text-anchor="middle" pointer-events="none" font-family="sans-serif" dy="1.5625" font-size="25" fill="#2A2C34"/><text text-anchor="middle" pointer-events="none" x="0" y="-5" font-size="10px" fill="#2A2C34" font-family="sans-serif"> The</text><text text-anchor="middle" pointer-events="none" x="0" y="5" font-size="10px" fill="#2A2C34" font-family="sans-serif"> Matrix</text><text text-anchor="middle" pointer-events="none" x="0" y="15" font-size="10px" fill="#2A2C34" font-family="sans-serif"> Reloa…</text></g><g class="node" transform="translate(117.30389917345053,98.8907378625757)"><circle class="outline" cx="0" cy="0" r="25" fill="#57C7E3" stroke="#23b3d7" stroke-width="2px"/><text text-anchor="middle" pointer-events="none" font-family="sans-serif" dy="1.5625" font-size="25" fill="#2A2C34"/><text text-anchor="middle" pointer-events="none" font-family="sans-serif" dy="1.5625" font-size="25" fill="#2A2C34"/><text text-anchor="middle" pointer-events="none" font-family="sans-serif" dy="1.5625" font-size="25" fill="#2A2C34"/><text text-anchor="middle" pointer-events="none" x="0" y="-5" font-size="10px" fill="#2A2C34" font-family="sans-serif"> The</text><text text-anchor="middle" pointer-events="none" x="0" y="5" font-size="10px" fill="#2A2C34" font-family="sans-serif"> Matrix</text><text text-anchor="middle" pointer-events="none" x="0" y="15" font-size="10px" fill="#2A2C34" font-family="sans-serif"> Revol…</text></g><g class="node" transform="translate(-81.34498533639207,0.2506707071832545)"><circle class="outline" cx="0" cy="0" r="25" fill="#57C7E3" stroke="#23b3d7" stroke-width="2px"/><text text-anchor="middle" pointer-events="none" font-family="sans-serif" dy="1.5625" font-size="25" fill="#2A2C34"/><text text-anchor="middle" pointer-events="none" font-family="sans-serif" dy="1.5625" font-size="25" fill="#2A2C34"/><text text-anchor="middle" pointer-events="none" font-family="sans-serif" dy="1.5625" font-size="25" fill="#2A2C34"/><text text-anchor="middle" pointer-events="none" x="0" y="-5" font-size="10px" fill="#2A2C34" font-family="sans-serif"> The</text><text text-anchor="middle" pointer-events="none" x="0" y="5" font-size="10px" fill="#2A2C34" font-family="sans-serif"> Devil's</text><text text-anchor="middle" pointer-events="none" x="0" y="15" font-size="10px" fill="#2A2C34" font-family="sans-serif"> Advoc…</text></g><g class="node" transform="translate(-2.3248995568394912,-57.341423278249565)"><circle class="outline" cx="0" cy="0" r="25" fill="#57C7E3" stroke="#23b3d7" stroke-width="2px"/><text text-anchor="middle" pointer-events="none" font-family="sans-serif" dy="1.5625" font-size="25" fill="#2A2C34"/><text text-anchor="middle" pointer-events="none" font-family="sans-serif" dy="1.5625" font-size="25" fill="#2A2C34"/><text text-anchor="middle" pointer-events="none" x="0" y="0" font-size="10px" fill="#2A2C34" font-family="sans-serif"> The</text><text text-anchor="middle" pointer-events="none" x="0" y="10" font-size="10px" fill="#2A2C34" font-family="sans-serif"> Replac…</text></g><g class="node" transform="translate(-100.91694390410491,88.84153280043537)"><circle class="outline" cx="0" cy="0" r="25" fill="#57C7E3" stroke="#23b3d7" stroke-width="2px"/><text text-anchor="middle" pointer-events="none" font-family="sans-serif" dy="1.5625" font-size="25" fill="#2A2C34"/><text text-anchor="middle" pointer-events="none" font-family="sans-serif" dy="1.5625" font-size="25" fill="#2A2C34"/><text text-anchor="middle" pointer-events="none" x="0" y="0" font-size="10px" fill="#2A2C34" font-family="sans-serif"> Johnny</text><text text-anchor="middle" pointer-events="none" x="0" y="10" font-size="10px" fill="#2A2C34" font-family="sans-serif"> Mnemo…</text></g><g class="node" transform="translate(276.2585747500112,256.99774556359745)"><circle class="outline" cx="0" cy="0" r="25" fill="#57C7E3" stroke="#23b3d7" stroke-width="2px"/><text text-anchor="middle" pointer-events="none" font-family="sans-serif" dy="1.5625" font-size="25" fill="#2A2C34"/><text text-anchor="middle" pointer-events="none" font-family="sans-serif" dy="1.5625" font-size="25" fill="#2A2C34"/><text text-anchor="middle" pointer-events="none" x="0" y="0" font-size="10px" fill="#2A2C34" font-family="sans-serif"> Cloud</text><text text-anchor="middle" pointer-events="none" x="0" y="10" font-size="10px" fill="#2A2C34" font-family="sans-serif"> Atlas</text></g><g class="node" transform="translate(169.98022641927506,339.032759206905)"><circle class="outline" cx="0" cy="0" r="25" fill="#57C7E3" stroke="#23b3d7" stroke-width="2px"/><text text-anchor="middle" pointer-events="none" font-family="sans-serif" dy="1.5625" font-size="25" fill="#2A2C34"/><text text-anchor="middle" pointer-events="none" font-family="sans-serif" dy="1.5625" font-size="25" fill="#2A2C34"/><text text-anchor="middle" pointer-events="none" x="0" y="0" font-size="10px" fill="#2A2C34" font-family="sans-serif"> V for</text><text text-anchor="middle" pointer-events="none" x="0" y="10" font-size="10px" fill="#2A2C34" font-family="sans-serif"> Vendetta</text></g><g class="node" transform="translate(-52.516504891256695,168.5301454021569)"><circle class="outline" cx="0" cy="0" r="25" fill="#57C7E3" stroke="#23b3d7" stroke-width="2px"/><text text-anchor="middle" pointer-events="none" font-family="sans-serif" dy="1.5625" font-size="25" fill="#2A2C34"/><text text-anchor="middle" pointer-events="none" x="0" y="5" font-size="10px" fill="#2A2C34" font-family="sans-serif"> Somethi…</text></g></g></svg>