<svg xmlns="http://www.w3.org/2000/svg" width="373.9957580566406" height="377.1719665527344" viewBox="-86.37158203125 -90.9612808227539 373.9957580566406 377.1719665527344"><title>Neo4j Graph Visualization</title><desc>Created using Neo4j (http://www.neo4j.com/)</desc><g class="layer relationships"><g class="relationship" transform="translate(115.18179061558949 257.2107032210776) rotate(325.56115951337864)"><path class="outline" fill="#A5ABB6" stroke="none" d="M 24.018736134675446,6.953439040707552 L 24.277555179777966,5.987513214418485 A 100.50283636731541 100.50283636731541 0 0 0 25.578506645081106,6.326792174574791 L 25.33263202535329,7.296093815641029 A 101.50283636731541 101.50283636731541 0 0 1 24.018736134675446,6.953439040707552 Z M 72.02714051712937,8.057123880917871 L 71.81298357357358,7.080324616213588 A 100.50283636731541 100.50283636731541 0 0 0 73.12430033031875,6.783620569462703 L 72.44268682057455,3.8620793626107086 L 80.05483206459743,5.680112581201591 L 74.033118343311,10.679008845265361 L 73.3515048335668,7.757467638413368 A 101.50283636731541 101.50283636731541 0 0 1 72.02714051712937,8.057123880917871"/><text text-anchor="middle" pointer-events="none" font-size="8px" fill="#000000" x="48.64367126336594" y="12.898652457229346" font-family="sans-serif">DIRECTED</text></g><g class="relationship" transform="translate(115.18179061558949 257.2107032210776) rotate(325.56115951337864)"><path class="outline" fill="#A5ABB6" stroke="none" d="M 24.018736134675446,-6.953439040707552 L 24.277555179777966,-5.987513214418485 A 100.50283636731541 100.50283636731541 0 0 1 30.974494844795082,-7.538567919937279 L 30.78231013467333,-8.519926690823553 A 101.50283636731541 101.50283636731541 0 0 0 24.018736134675446,-6.953439040707552 Z M 66.5404751826686,-9.102715536013974 L 66.38037254469504,-8.115615163552334 A 100.50283636731541 100.50283636731541 0 0 1 73.12430033031875,-6.783620569462703 L 72.44268682057455,-3.8620793626107086 L 80.05483206459743,-5.680112581201591 L 74.033118343311,-10.679008845265361 L 73.3515048335668,-7.757467638413368 A 101.50283636731541 101.50283636731541 0 0 0 66.5404751826686,-9.102715536013974"/><text text-anchor="middle" pointer-events="none" font-size="8px" fill="#000000" x="48.64367126336592" y="-6.898652457229346" font-family="sans-serif">WROTE</text></g><g class="relationship" transform="translate(258.6241900529118 110.80016813464125) rotate(483.2766286104481)"><path class="outline" fill="#A5ABB6" stroke="none" d="M 24.018736134675446,6.953439040707552 L 24.277555179777966,5.987513214418485 A 100.71007984588007 100.71007984588007 0 0 0 25.629071015196793,6.339625048200688 L 25.383671836680488,7.3090471663636265 A 101.71007984588007 101.71007984588007 0 0 1 24.018736134675446,6.953439040707552 Z M 72.07944260306009,8.069389924793072 L 71.86573516365675,7.09249221758742 A 100.71007984588007 100.71007984588007 0 0 0 73.22799829326894,6.784568586509121 L 72.5462962297634,3.8630480412087334 L 80.15849657622077,5.680850529212906 L 74.136934377943,10.679929313576306 L 73.45523231443747,7.758408768275918 A 101.71007984588007 101.71007984588007 0 0 1 72.07944260306009,8.069389924793072"/><text text-anchor="middle" pointer-events="none" font-size="8px" fill="#000000" x="48.695466276418465" y="12.90571157255215" transform="rotate(180 48.695466276418465 9.90571157255215)" font-family="sans-serif">DIRECTED</text></g><g class="relationship" transform="translate(258.6241900529118 110.80016813464125) rotate(483.2766286104481)"><path class="outline" fill="#A5ABB6" stroke="none" d="M 24.018736134675446,-6.953439040707552 L 24.277555179777966,-5.987513214418485 A 100.71007984588007 100.71007984588007 0 0 1 31.025642526869326,-7.549071102828179 L 30.83382856564141,-8.530502406729823 A 101.71007984588007 101.71007984588007 0 0 0 24.018736134675446,-6.953439040707552 Z M 66.59240800693941,-9.11275592741677 L 66.43264836311772,-8.125599984211249 A 100.71007984588007 100.71007984588007 0 0 1 73.22799829326894,-6.784568586509121 L 72.5462962297634,-3.8630480412087334 L 80.15849657622077,-5.680850529212906 L 74.136934377943,-10.679929313576306 L 73.45523231443747,-7.758408768275918 A 101.71007984588007 101.71007984588007 0 0 0 66.59240800693941,-9.11275592741677"/><text text-anchor="middle" pointer-events="none" font-size="8px" fill="#000000" x="48.69546627641846" y="-6.90571157255215" transform="rotate(180 48.69546627641846 -9.90571157255215)" font-family="sans-serif">WROTE</text></g><g class="relationship" transform="translate(169.39003079538222 -49.53244385581643) rotate(186.76229055459686)"><path class="outline" fill="#A5ABB6" stroke="none" d="M 21.40063509461097,12.933012701892217 L 21.90063509461097,12.06698729810778 A 57.971007635648355 57.971007635648355 0 0 0 24.418017158458078,13.438549111229676 L 23.961442004195952,14.328233959089026 A 58.971007635648355 58.971007635648355 0 0 1 21.40063509461097,12.933012701892217 Z M 74.47074483304354,15.912100308493066 L 74.07080922288193,14.995557070165134 A 57.971007635648355 57.971007635648355 0 0 0 76.6691795049912,13.784414576630793 L 75.33490699650191,11.097461493101104 L 83.16111545130869,11.118937570744066 L 78.44820951631026,17.36701868800371 L 77.11393700782097,14.680065604474022 A 58.971007635648355 58.971007635648355 0 0 1 74.47074483304354,15.912100308493066"/><text text-anchor="middle" pointer-events="none" font-size="8px" fill="#000000" x="49.05351091966461" y="23.304903003383565" transform="rotate(180 49.05351091966461 20.304903003383565)" font-family="sans-serif">PRODUCED</text></g><g class="relationship" transform="translate(169.39003079538222 -49.53244385581643) rotate(186.76229055459686)"><path class="outline" fill="#A5ABB6" stroke="none" d="M 25 0.5 L 25.830883073694707 0.5 L 25.830883073694707 -0.5 L 25 -0.5 Z M 72.72150807369471 0.5 L 73.55239114738941 0.5 L 73.55239114738941 3.5 L 80.55239114738941 0 L 73.55239114738941 -3.5 L 73.55239114738941 -0.5 L 72.72150807369471 -0.5 Z"/><text text-anchor="middle" pointer-events="none" font-size="8px" fill="#000000" x="49.27619557369471" y="3" transform="rotate(180 49.27619557369471 0)" font-family="sans-serif">DIRECTED</text></g><g class="relationship" transform="translate(169.39003079538222 -49.53244385581643) rotate(186.76229055459686)"><path class="outline" fill="#A5ABB6" stroke="none" d="M 21.40063509461097,-12.933012701892217 L 21.90063509461097,-12.06698729810778 A 57.971007635648355 57.971007635648355 0 0 1 31.703642960214793,-16.56791950971011 L 31.37274486589869,-17.511586003328468 A 58.971007635648355 58.971007635648355 0 0 0 21.40063509461097,-12.933012701892217 Z M 66.87455256640264,-18.624848618541733 L 66.60342927556874,-17.66230399039849 A 57.971007635648355 57.971007635648355 0 0 1 76.6691795049912,-13.784414576630793 L 75.33490699650191,-11.097461493101104 L 83.16111545130869,-11.118937570744066 L 78.44820951631026,-17.36701868800371 L 77.11393700782097,-14.680065604474022 A 58.971007635648355 58.971007635648355 0 0 0 66.87455256640264,-18.624848618541733"/><text text-anchor="middle" pointer-events="none" font-size="8px" fill="#000000" x="49.0535109196646" y="-17.304903003383565" transform="rotate(180 49.0535109196646 -20.304903003383565)" font-family="sans-serif">WROTE</text></g><g class="relationship" transform="translate(-57.37157404144497 183.83314046219357) rotate(277.9857775300369)"><path class="outline" fill="#A5ABB6" stroke="none" d="M 21.40063509461097,12.933012701892217 L 21.90063509461097,12.06698729810778 A 57.206488763117235 57.206488763117235 0 0 0 31.344494029998476,16.427407705581075 L 31.00957773185777,17.36965558869874 A 58.206488763117235 58.206488763117235 0 0 1 21.40063509461097,12.933012701892217 Z M 66.50027913380835,18.4899766017231 L 66.22545754608572,17.528481362566076 A 57.206488763117235 57.206488763117235 0 0 0 75.92552785274805,13.77236984036437 L 74.59237584886372,11.084860633954236 L 82.4185746683524,11.109600032369318 L 77.70306385792713,17.355715448911216 L 76.36991185404281,14.668206242501082 A 58.206488763117235 58.206488763117235 0 0 1 66.50027913380835,18.4899766017231"/><text text-anchor="middle" pointer-events="none" font-size="8px" fill="#000000" x="48.68318832934348" y="23.20247416543701" font-family="sans-serif">WROTE</text></g><g class="relationship" transform="translate(-57.37157404144497 183.83314046219357) rotate(277.9857775300369)"><path class="outline" fill="#A5ABB6" stroke="none" d="M 25 0.5 L 25.4619298608851 0.5 L 25.4619298608851 -0.5 L 25 -0.5 Z M 72.3525548608851 0.5 L 72.8144847217702 0.5 L 72.8144847217702 3.5 L 79.8144847217702 0 L 72.8144847217702 -3.5 L 72.8144847217702 -0.5 L 72.3525548608851 -0.5 Z"/><text text-anchor="middle" pointer-events="none" font-size="8px" fill="#000000" x="48.9072423608851" y="3" font-family="sans-serif">DIRECTED</text></g><g class="relationship" transform="translate(-57.37157404144497 183.83314046219357) rotate(277.9857775300369)"><path class="outline" fill="#A5ABB6" stroke="none" d="M 21.40063509461097,-12.933012701892217 L 21.90063509461097,-12.06698729810778 A 57.206488763117235 57.206488763117235 0 0 1 24.076120216442686,-13.260854718812283 L 23.614148859152085,-14.147749563223428 A 58.206488763117235 58.206488763117235 0 0 0 21.40063509461097,-12.933012701892217 Z M 74.08419111317446,-15.740917537703105 L 73.67907628597763,-14.826651724722396 A 57.206488763117235 57.206488763117235 0 0 1 75.92552785274805,-13.77236984036437 L 74.59237584886372,-11.084860633954236 L 82.4185746683524,-11.109600032369318 L 77.70306385792713,-17.355715448911216 L 76.36991185404281,-14.668206242501082 A 58.206488763117235 58.206488763117235 0 0 0 74.08419111317446,-15.740917537703105"/><text text-anchor="middle" pointer-events="none" font-size="8px" fill="#000000" x="48.68318832934349" y="-17.20247416543701" font-family="sans-serif">PRODUCED</text></g></g><g class="layer nodes"><g class="node" transform="translate(115.18179061558949,257.2107032210776)"><circle class="outline" cx="0" cy="0" r="25" fill="#F79767" stroke="#f36924" stroke-width="2px"/><text text-anchor="middle" pointer-events="none" font-family="sans-serif" dy="1.5625" font-size="25" fill="#FFFFFF"/><text text-anchor="middle" pointer-events="none" font-family="sans-serif" dy="1.5625" font-size="25" fill="#FFFFFF"/><text text-anchor="middle" pointer-events="none" x="0" y="0" font-size="10px" fill="#FFFFFF" font-family="sans-serif"> Lilly</text><text text-anchor="middle" pointer-events="none" x="0" y="10" font-size="10px" fill="#FFFFFF" font-family="sans-serif"> Wacho…</text></g><g class="node" transform="translate(201.2844680820693,198.1691960491615)"><circle class="outline" cx="0" cy="0" r="25" fill="#57C7E3" stroke="#23b3d7" stroke-width="2px"/><text text-anchor="middle" pointer-events="none" font-family="sans-serif" dy="1.5625" font-size="25" fill="#2A2C34"/><text text-anchor="middle" pointer-events="none" font-family="sans-serif" dy="1.5625" font-size="25" fill="#2A2C34"/><text text-anchor="middle" pointer-events="none" x="0" y="0" font-size="10px" fill="#2A2C34" font-family="sans-serif"> Speed</text><text text-anchor="middle" pointer-events="none" x="0" y="10" font-size="10px" fill="#2A2C34" font-family="sans-serif"> Racer</text></g><g class="node" transform="translate(258.6241900529118,110.80016813464125)"><circle class="outline" cx="0" cy="0" r="25" fill="#F79767" stroke="#f36924" stroke-width="2px"/><text text-anchor="middle" pointer-events="none" font-family="sans-serif" dy="1.5625" font-size="25" fill="#FFFFFF"/><text text-anchor="middle" pointer-events="none" font-family="sans-serif" dy="1.5625" font-size="25" fill="#FFFFFF"/><text text-anchor="middle" pointer-events="none" x="0" y="0" font-size="10px" fill="#FFFFFF" font-family="sans-serif"> Lana</text><text text-anchor="middle" pointer-events="none" x="0" y="10" font-size="10px" fill="#FFFFFF" font-family="sans-serif"> Wacho…</text></g><g class="node" transform="translate(169.39003079538222,-49.53244385581643)"><circle class="outline" cx="0" cy="0" r="25" fill="#F79767" stroke="#f36924" stroke-width="2px"/><text text-anchor="middle" pointer-events="none" font-family="sans-serif" dy="1.5625" font-size="25" fill="#FFFFFF"/><text text-anchor="middle" pointer-events="none" font-family="sans-serif" dy="1.5625" font-size="25" fill="#FFFFFF"/><text text-anchor="middle" pointer-events="none" x="0" y="0" font-size="10px" fill="#FFFFFF" font-family="sans-serif"> Cameron</text><text text-anchor="middle" pointer-events="none" x="0" y="10" font-size="10px" fill="#FFFFFF" font-family="sans-serif"> Crowe</text></g><g class="node" transform="translate(64.57194429722935,-61.961282087816855)"><circle class="outline" cx="0" cy="0" r="25" fill="#57C7E3" stroke="#23b3d7" stroke-width="2px"/><text text-anchor="middle" pointer-events="none" font-family="sans-serif" dy="1.5625" font-size="25" fill="#2A2C34"/><text text-anchor="middle" pointer-events="none" font-family="sans-serif" dy="1.5625" font-size="25" fill="#2A2C34"/><text text-anchor="middle" pointer-events="none" x="0" y="0" font-size="10px" fill="#2A2C34" font-family="sans-serif"> Jerry</text><text text-anchor="middle" pointer-events="none" x="0" y="10" font-size="10px" fill="#2A2C34" font-family="sans-serif"> Maguire</text></g><g class="node" transform="translate(-57.37157404144497,183.83314046219357)"><circle class="outline" cx="0" cy="0" r="25" fill="#F79767" stroke="#f36924" stroke-width="2px"/><text text-anchor="middle" pointer-events="none" font-family="sans-serif" dy="1.5625" font-size="25" fill="#FFFFFF"/><text text-anchor="middle" pointer-events="none" font-family="sans-serif" dy="1.5625" font-size="25" fill="#FFFFFF"/><text text-anchor="middle" pointer-events="none" x="0" y="0" font-size="10px" fill="#FFFFFF" font-family="sans-serif"> Nancy</text><text text-anchor="middle" pointer-events="none" x="0" y="10" font-size="10px" fill="#FFFFFF" font-family="sans-serif"> Meyers</text></g><g class="node" transform="translate(-42.809982408322405,80.0350852944768)"><circle class="outline" cx="0" cy="0" r="25" fill="#57C7E3" stroke="#23b3d7" stroke-width="2px"/><text text-anchor="middle" pointer-events="none" font-family="sans-serif" dy="1.5625" font-size="25" fill="#2A2C34"/><text text-anchor="middle" pointer-events="none" x="0" y="5" font-size="10px" fill="#2A2C34" font-family="sans-serif"> Somethi…</text></g></g></svg>