<svg xmlns="http://www.w3.org/2000/svg" width="323.56890869140625" height="406.18402099609375" viewBox="-70.14250183105469 -67.96440124511719 323.56890869140625 406.18402099609375"><title>Neo4j Graph Visualization</title><desc>Created using Neo4j (http://www.neo4j.com/)</desc><g class="layer relationships"><g class="relationship" transform="translate(87.3868174421701 148.34095742088948) rotate(388.2137130363636)"><path class="outline" fill="#A5ABB6" stroke="none" d="M 25 0.5 L 26.74562455306996 0.5 L 26.74562455306996 -0.5 L 25 -0.5 Z M 67.85890580306996 0.5 L 69.60453035613992 0.5 L 69.60453035613992 3.5 L 76.60453035613992 0 L 69.60453035613992 -3.5 L 69.60453035613992 -0.5 L 67.85890580306996 -0.5 Z"/><text text-anchor="middle" pointer-events="none" font-size="8px" fill="#000000" x="47.30226517806996" y="3" font-family="sans-serif">ACTED…</text></g><g class="relationship" transform="translate(87.3868174421701 148.34095742088948) rotate(254.27300537922127)"><path class="outline" fill="#A5ABB6" stroke="none" d="M 25 0.5 L 34.788287244564415 0.5 L 34.788287244564415 -0.5 L 25 -0.5 Z M 80.35078724456442 0.5 L 90.13907448912883 0.5 L 90.13907448912883 3.5 L 97.13907448912883 0 L 90.13907448912883 -3.5 L 90.13907448912883 -0.5 L 80.35078724456442 -0.5 Z"/><text text-anchor="middle" pointer-events="none" font-size="8px" fill="#000000" x="57.569537244564415" y="3" transform="rotate(180 57.569537244564415 0)" font-family="sans-serif">ACTED_IN</text></g><g class="relationship" transform="translate(87.3868174421701 148.34095742088948) rotate(280.03773164422705)"><path class="outline" fill="#A5ABB6" stroke="none" d="M 25 0.5 L 48.053586512793004 0.5 L 48.053586512793004 -0.5 L 25 -0.5 Z M 93.616086512793 0.5 L 116.66967302558601 0.5 L 116.66967302558601 3.5 L 123.66967302558601 0 L 116.66967302558601 -3.5 L 116.66967302558601 -0.5 L 93.616086512793 -0.5 Z"/><text text-anchor="middle" pointer-events="none" font-size="8px" fill="#000000" x="70.834836512793" y="3" font-family="sans-serif">ACTED_IN</text></g><g class="relationship" transform="translate(87.3868174421701 148.34095742088948) rotate(357.87224305733616)"><path class="outline" fill="#A5ABB6" stroke="none" d="M 25 0.5 L 42.28582874663155 0.5 L 42.28582874663155 -0.5 L 25 -0.5 Z M 87.84832874663155 0.5 L 105.1341574932631 0.5 L 105.1341574932631 3.5 L 112.1341574932631 0 L 105.1341574932631 -3.5 L 105.1341574932631 -0.5 L 87.84832874663155 -0.5 Z"/><text text-anchor="middle" pointer-events="none" font-size="8px" fill="#000000" x="65.06707874663155" y="3" font-family="sans-serif">ACTED_IN</text></g><g class="relationship" transform="translate(87.3868174421701 148.34095742088948) rotate(223.00929709334883)"><path class="outline" fill="#A5ABB6" stroke="none" d="M 25 0.5 L 26.250309797999066 0.5 L 26.250309797999066 -0.5 L 25 -0.5 Z M 51.363591047999066 0.5 L 52.61390084599813 0.5 L 52.61390084599813 3.5 L 59.61390084599813 0 L 52.61390084599813 -3.5 L 52.61390084599813 -0.5 L 51.363591047999066 -0.5 Z"/><text text-anchor="middle" pointer-events="none" font-size="8px" fill="#000000" x="38.806950422999066" y="3" transform="rotate(180 38.806950422999066 0)" font-family="sans-serif">AC…</text></g><g class="relationship" transform="translate(167.9683841535646 309.2196377763175) rotate(274.5354986715936)"><path class="outline" fill="#A5ABB6" stroke="none" d="M 25 0.5 L 29.653902075335985 0.5 L 29.653902075335985 -0.5 L 25 -0.5 Z M 76.54452707533599 0.5 L 81.19842915067197 0.5 L 81.19842915067197 3.5 L 88.19842915067197 0 L 81.19842915067197 -3.5 L 81.19842915067197 -0.5 L 76.54452707533599 -0.5 Z"/><text text-anchor="middle" pointer-events="none" font-size="8px" fill="#000000" x="53.099214575335985" y="3" font-family="sans-serif">DIRECTED</text></g><g class="relationship" transform="translate(128.68447611383732 104.81841113051229) rotate(224.86113253968966)"><path class="outline" fill="#A5ABB6" stroke="none" d="M 24.018736134675446,6.953439040707552 L 24.277555179777966,5.987513214418485 A 101.63997919790307 101.63997919790307 0 0 0 24.999274252021973,6.178059585487844 L 24.74755594698197,7.145860130490675 A 102.63997919790307 102.63997919790307 0 0 1 24.018736134675446,6.953439040707552 Z M 73.18606498859675,7.931301062388911 L 72.96585696025141,6.955848129515033 A 101.63997919790307 101.63997919790307 0 0 0 73.69337448147759,6.788801444192389 L 73.0112770295548,3.8673731862883143 L 80.6237233252409,5.684145432689897 L 74.60283775070798,10.684039121397824 L 73.92074029878519,7.762610863493748 A 102.63997919790307 102.63997919790307 0 0 1 73.18606498859675,7.931301062388911"/><text text-anchor="middle" pointer-events="none" font-size="8px" fill="#000000" x="48.92791331503771" y="12.937386170145246" transform="rotate(180 48.92791331503771 9.937386170145246)" font-family="sans-serif">PRODUC…</text></g><g class="relationship" transform="translate(128.68447611383732 104.81841113051229) rotate(224.86113253968966)"><path class="outline" fill="#A5ABB6" stroke="none" d="M 24.018736134675446,-6.953439040707552 L 24.277555179777966,-5.987513214418485 A 101.63997919790307 101.63997919790307 0 0 1 31.25522674723425,-7.596037056581778 L 31.065058558050048,-8.577788583100784 A 102.63997919790307 102.63997919790307 0 0 0 24.018736134675446,-6.953439040707552 Z M 66.82545781329073,-9.1576512145447 L 66.66721985961814,-8.170250206839356 A 101.63997919790307 101.63997919790307 0 0 1 73.69337448147759,-6.788801444192389 L 73.0112770295548,-3.8673731862883143 L 80.6237233252409,-5.684145432689897 L 74.60283775070798,-10.684039121397824 L 73.92074029878519,-7.762610863493748 A 102.63997919790307 102.63997919790307 0 0 0 66.82545781329073,-9.1576512145447"/><text text-anchor="middle" pointer-events="none" font-size="8px" fill="#000000" x="48.927913315037685" y="-6.9373861701452455" transform="rotate(180 48.927913315037685 -9.937386170145246)" font-family="sans-serif">WROTE</text></g><g class="relationship" transform="translate(128.68447611383732 104.81841113051229) rotate(422.2183188262649)"><path class="outline" fill="#A5ABB6" stroke="none" d="M 25 0.5 L 26.354385413890583 0.5 L 26.354385413890583 -0.5 L 25 -0.5 Z M 70.13172916389058 0.5 L 71.48611457778117 0.5 L 71.48611457778117 3.5 L 78.48611457778117 0 L 71.48611457778117 -3.5 L 71.48611457778117 -0.5 L 70.13172916389058 -0.5 Z"/><text text-anchor="middle" pointer-events="none" font-size="8px" fill="#000000" x="48.24305728889058" y="3" font-family="sans-serif">DIRECT…</text></g><g class="relationship" transform="translate(128.68447611383732 104.81841113051229) rotate(261.49412451182616)"><path class="outline" fill="#A5ABB6" stroke="none" d="M 25 0.5 L 25.062470438835867 0.5 L 25.062470438835867 -0.5 L 25 -0.5 Z M 71.95309543883587 0.5 L 72.01556587767173 0.5 L 72.01556587767173 3.5 L 79.01556587767173 0 L 72.01556587767173 -3.5 L 72.01556587767173 -0.5 L 71.95309543883587 -0.5 Z"/><text text-anchor="middle" pointer-events="none" font-size="8px" fill="#000000" x="48.50778293883587" y="3" transform="rotate(180 48.50778293883587 0)" font-family="sans-serif">DIRECTED</text></g><g class="relationship" transform="translate(128.68447611383732 104.81841113051229) rotate(381.87064714619703)"><path class="outline" fill="#A5ABB6" stroke="none" d="M 25 0.5 L 26.194916732308428 0.5 L 26.194916732308428 -0.5 L 25 -0.5 Z M 69.97226048230843 0.5 L 71.16717721461686 0.5 L 71.16717721461686 3.5 L 78.16717721461686 0 L 71.16717721461686 -3.5 L 71.16717721461686 -0.5 L 69.97226048230843 -0.5 Z"/><text text-anchor="middle" pointer-events="none" font-size="8px" fill="#000000" x="48.08358860730843" y="3" font-family="sans-serif">DIRECT…</text></g><g class="relationship" transform="translate(128.68447611383732 104.81841113051229) rotate(187.83345081310222)"><path class="outline" fill="#A5ABB6" stroke="none" d="M 25 0.5 L 25.126086883445254 0.5 L 25.126086883445254 -0.5 L 25 -0.5 Z M 72.01671188344525 0.5 L 72.14279876689051 0.5 L 72.14279876689051 3.5 L 79.14279876689051 0 L 72.14279876689051 -3.5 L 72.14279876689051 -0.5 L 72.01671188344525 -0.5 Z"/><text text-anchor="middle" pointer-events="none" font-size="8px" fill="#000000" x="48.571399383445254" y="3" transform="rotate(180 48.571399383445254 0)" font-family="sans-serif">DIRECTED</text></g><g class="relationship" transform="translate(171.76125212973653 63.05751862746616) rotate(195.3653950629597)"><path class="outline" fill="#A5ABB6" stroke="none" d="M 24.018736134675446,6.953439040707552 L 24.277555179777966,5.987513214418485 A 135.24051938183078 135.24051938183078 0 0 0 31.773197314097906,7.768771323891286 L 31.569802798334536,8.747868188842546 A 136.24051938183078 136.24051938183078 0 0 1 24.018736134675446,6.953439040707552 Z M 83.2221099336749,9.475568716759057 L 83.04637856699372,8.491130558841377 A 135.24051938183078 135.24051938183078 0 0 0 90.58922610155379,6.921741337285535 L 89.89471127021528,4.003240155334285 L 97.51481466466312,5.7876235944875605 L 91.5152458766718,10.81307624655387 L 90.82073104533329,7.894575064602618 A 136.24051938183078 136.24051938183078 0 0 1 83.2221099336749,9.475568716759057"/><text text-anchor="middle" pointer-events="none" font-size="8px" fill="#000000" x="57.36819460459047" y="14.082252995756562" transform="rotate(180 57.36819460459047 11.082252995756562)" font-family="sans-serif">PRODUCED</text></g><g class="relationship" transform="translate(171.76125212973653 63.05751862746616) rotate(195.3653950629597)"><path class="outline" fill="#A5ABB6" stroke="none" d="M 24.018736134675446,-6.953439040707552 L 24.277555179777966,-5.987513214418485 A 135.24051938183078 135.24051938183078 0 0 1 39.624212346504905,-9.159661839065905 L 39.478870070323964,-10.14904327347557 A 136.24051938183078 136.24051938183078 0 0 0 24.018736134675446,-6.953439040707552 Z M 75.27670877555579,-10.653379044108448 L 75.15929633773786,-9.66029580517747 A 135.24051938183078 135.24051938183078 0 0 1 90.58922610155379,-6.921741337285535 L 89.89471127021528,-4.003240155334285 L 97.51481466466312,-5.7876235944875605 L 91.5152458766718,-10.81307624655387 L 90.82073104533329,-7.894575064602618 A 136.24051938183078 136.24051938183078 0 0 0 75.27670877555579,-10.653379044108448"/><text text-anchor="middle" pointer-events="none" font-size="8px" fill="#000000" x="57.36819460459046" y="-8.082252995756562" transform="rotate(180 57.36819460459046 -11.082252995756562)" font-family="sans-serif">WROTE</text></g><g class="relationship" transform="translate(171.76125212973653 63.05751862746616) rotate(447.78415339938203)"><path class="outline" fill="#A5ABB6" stroke="none" d="M 25 0.5 L 39.76365204102777 0.5 L 39.76365204102777 -0.5 L 25 -0.5 Z M 86.65427704102777 0.5 L 101.41792908205554 0.5 L 101.41792908205554 3.5 L 108.41792908205554 0 L 101.41792908205554 -3.5 L 101.41792908205554 -0.5 L 86.65427704102777 -0.5 Z"/><text text-anchor="middle" pointer-events="none" font-size="8px" fill="#000000" x="63.20896454102777" y="3" font-family="sans-serif">DIRECTED</text></g><g class="relationship" transform="translate(171.76125212973653 63.05751862746616) rotate(226.2690099656894)"><path class="outline" fill="#A5ABB6" stroke="none" d="M 25 0.5 L 27.78559151142968 0.5 L 27.78559151142968 -0.5 L 25 -0.5 Z M 49.78559151142968 0.5 L 52.57118302285936 0.5 L 52.57118302285936 3.5 L 59.57118302285936 0 L 52.57118302285936 -3.5 L 52.57118302285936 -0.5 L 49.78559151142968 -0.5 Z"/><text text-anchor="middle" pointer-events="none" font-size="8px" fill="#000000" x="38.78559151142968" y="3" transform="rotate(180 38.78559151142968 0)" font-family="sans-serif">DI…</text></g><g class="relationship" transform="translate(171.76125212973653 63.05751862746616) rotate(416.7055356257446)"><path class="outline" fill="#A5ABB6" stroke="none" d="M 25 0.5 L 25.024387413284444 0.5 L 25.024387413284444 -0.5 L 25 -0.5 Z M 63.915012413284444 0.5 L 63.93939982656889 0.5 L 63.93939982656889 3.5 L 70.93939982656889 0 L 63.93939982656889 -3.5 L 63.93939982656889 -0.5 L 63.915012413284444 -0.5 Z"/><text text-anchor="middle" pointer-events="none" font-size="8px" fill="#000000" x="44.469699913284444" y="3" font-family="sans-serif">DIREC…</text></g><g class="relationship" transform="translate(171.76125212973653 63.05751862746616) rotate(529.3253250060238)"><path class="outline" fill="#A5ABB6" stroke="none" d="M 25 0.5 L 47.46627732814086 0.5 L 47.46627732814086 -0.5 L 25 -0.5 Z M 94.35690232814086 0.5 L 116.82317965628172 0.5 L 116.82317965628172 3.5 L 123.82317965628172 0 L 116.82317965628172 -3.5 L 116.82317965628172 -0.5 L 94.35690232814086 -0.5 Z"/><text text-anchor="middle" pointer-events="none" font-size="8px" fill="#000000" x="70.91158982814086" y="3" transform="rotate(180 70.91158982814086 0)" font-family="sans-serif">DIRECTED</text></g><g class="relationship" transform="translate(-41.14250299792022 -38.96439901445652) rotate(396.160707011673)"><path class="outline" fill="#A5ABB6" stroke="none" d="M 25 0.5 L 32.15002818121652 0.5 L 32.15002818121652 -0.5 L 25 -0.5 Z M 79.04065318121653 0.5 L 86.19068136243304 0.5 L 86.19068136243304 3.5 L 93.19068136243304 0 L 86.19068136243304 -3.5 L 86.19068136243304 -0.5 L 79.04065318121653 -0.5 Z"/><text text-anchor="middle" pointer-events="none" font-size="8px" fill="#000000" x="55.59534068121652" y="3" font-family="sans-serif">DIRECTED</text></g></g><g class="layer nodes"><g class="node" transform="translate(87.3868174421701,148.34095742088948)"><circle class="outline" cx="0" cy="0" r="25" fill="#F79767" stroke="#f36924" stroke-width="2px"/><text text-anchor="middle" pointer-events="none" font-family="sans-serif" dy="1.5625" font-size="25" fill="#FFFFFF"/><text text-anchor="middle" pointer-events="none" font-family="sans-serif" dy="1.5625" font-size="25" fill="#FFFFFF"/><text text-anchor="middle" pointer-events="none" x="0" y="0" font-size="10px" fill="#FFFFFF" font-family="sans-serif"> Hugo</text><text text-anchor="middle" pointer-events="none" x="0" y="10" font-size="10px" fill="#FFFFFF" font-family="sans-serif"> Weaving</text></g><g class="node" transform="translate(176.91974683660467,196.37568592998954)"><circle class="outline" cx="0" cy="0" r="25" fill="#57C7E3" stroke="#23b3d7" stroke-width="2px"/><text text-anchor="middle" pointer-events="none" font-family="sans-serif" dy="1.5625" font-size="25" fill="#2A2C34"/><text text-anchor="middle" pointer-events="none" font-family="sans-serif" dy="1.5625" font-size="25" fill="#2A2C34"/><text text-anchor="middle" pointer-events="none" x="0" y="0" font-size="10px" fill="#2A2C34" font-family="sans-serif"> Cloud</text><text text-anchor="middle" pointer-events="none" x="0" y="10" font-size="10px" fill="#2A2C34" font-family="sans-serif"> Atlas</text></g><g class="node" transform="translate(167.9683841535646,309.2196377763175)"><circle class="outline" cx="0" cy="0" r="25" fill="#F79767" stroke="#f36924" stroke-width="2px"/><text text-anchor="middle" pointer-events="none" font-family="sans-serif" dy="1.5625" font-size="25" fill="#FFFFFF"/><text text-anchor="middle" pointer-events="none" font-family="sans-serif" dy="1.5625" font-size="25" fill="#FFFFFF"/><text text-anchor="middle" pointer-events="none" x="0" y="0" font-size="10px" fill="#FFFFFF" font-family="sans-serif"> Tom</text><text text-anchor="middle" pointer-events="none" x="0" y="10" font-size="10px" fill="#FFFFFF" font-family="sans-serif"> Tykwer</text></g><g class="node" transform="translate(128.68447611383732,104.81841113051229)"><circle class="outline" cx="0" cy="0" r="25" fill="#F79767" stroke="#f36924" stroke-width="2px"/><text text-anchor="middle" pointer-events="none" font-family="sans-serif" dy="1.5625" font-size="25" fill="#FFFFFF"/><text text-anchor="middle" pointer-events="none" font-family="sans-serif" dy="1.5625" font-size="25" fill="#FFFFFF"/><text text-anchor="middle" pointer-events="none" x="0" y="0" font-size="10px" fill="#FFFFFF" font-family="sans-serif"> Lana</text><text text-anchor="middle" pointer-events="none" x="0" y="10" font-size="10px" fill="#FFFFFF" font-family="sans-serif"> Wacho…</text></g><g class="node" transform="translate(171.76125212973653,63.05751862746616)"><circle class="outline" cx="0" cy="0" r="25" fill="#F79767" stroke="#f36924" stroke-width="2px"/><text text-anchor="middle" pointer-events="none" font-family="sans-serif" dy="1.5625" font-size="25" fill="#FFFFFF"/><text text-anchor="middle" pointer-events="none" font-family="sans-serif" dy="1.5625" font-size="25" fill="#FFFFFF"/><text text-anchor="middle" pointer-events="none" x="0" y="0" font-size="10px" fill="#FFFFFF" font-family="sans-serif"> Lilly</text><text text-anchor="middle" pointer-events="none" x="0" y="10" font-size="10px" fill="#FFFFFF" font-family="sans-serif"> Wacho…</text></g><g class="node" transform="translate(54.280534780337184,30.774263304844077)"><circle class="outline" cx="0" cy="0" r="25" fill="#57C7E3" stroke="#23b3d7" stroke-width="2px"/><text text-anchor="middle" pointer-events="none" font-family="sans-serif" dy="1.5625" font-size="25" fill="#2A2C34"/><text text-anchor="middle" pointer-events="none" font-family="sans-serif" dy="1.5625" font-size="25" fill="#2A2C34"/><text text-anchor="middle" pointer-events="none" x="0" y="0" font-size="10px" fill="#2A2C34" font-family="sans-serif"> V for</text><text text-anchor="middle" pointer-events="none" x="0" y="10" font-size="10px" fill="#2A2C34" font-family="sans-serif"> Vendetta</text></g><g class="node" transform="translate(-41.14250299792022,-38.96439901445652)"><circle class="outline" cx="0" cy="0" r="25" fill="#F79767" stroke="#f36924" stroke-width="2px"/><text text-anchor="middle" pointer-events="none" font-family="sans-serif" dy="1.5625" font-size="25" fill="#FFFFFF"/><text text-anchor="middle" pointer-events="none" font-family="sans-serif" dy="1.5625" font-size="25" fill="#FFFFFF"/><text text-anchor="middle" pointer-events="none" x="0" y="0" font-size="10px" fill="#FFFFFF" font-family="sans-serif"> James</text><text text-anchor="middle" pointer-events="none" x="0" y="10" font-size="10px" fill="#FFFFFF" font-family="sans-serif"> Marshall</text></g><g class="node" transform="translate(113.2994473716177,1.946943582638048)"><circle class="outline" cx="0" cy="0" r="25" fill="#57C7E3" stroke="#23b3d7" stroke-width="2px"/><text text-anchor="middle" pointer-events="none" font-family="sans-serif" dy="1.5625" font-size="25" fill="#2A2C34"/><text text-anchor="middle" pointer-events="none" font-family="sans-serif" dy="1.5625" font-size="25" fill="#2A2C34"/><text text-anchor="middle" pointer-events="none" font-family="sans-serif" dy="1.5625" font-size="25" fill="#2A2C34"/><text text-anchor="middle" pointer-events="none" x="0" y="-5" font-size="10px" fill="#2A2C34" font-family="sans-serif"> The</text><text text-anchor="middle" pointer-events="none" x="0" y="5" font-size="10px" fill="#2A2C34" font-family="sans-serif"> Matrix</text><text text-anchor="middle" pointer-events="none" x="0" y="15" font-size="10px" fill="#2A2C34" font-family="sans-serif"> Revol…</text></g><g class="node" transform="translate(224.42642428897994,143.24946386213108)"><circle class="outline" cx="0" cy="0" r="25" fill="#57C7E3" stroke="#23b3d7" stroke-width="2px"/><text text-anchor="middle" pointer-events="none" font-family="sans-serif" dy="1.5625" font-size="25" fill="#2A2C34"/><text text-anchor="middle" pointer-events="none" font-family="sans-serif" dy="1.5625" font-size="25" fill="#2A2C34"/><text text-anchor="middle" pointer-events="none" font-family="sans-serif" dy="1.5625" font-size="25" fill="#2A2C34"/><text text-anchor="middle" pointer-events="none" x="0" y="-5" font-size="10px" fill="#2A2C34" font-family="sans-serif"> The</text><text text-anchor="middle" pointer-events="none" x="0" y="5" font-size="10px" fill="#2A2C34" font-family="sans-serif"> Matrix</text><text text-anchor="middle" pointer-events="none" x="0" y="15" font-size="10px" fill="#2A2C34" font-family="sans-serif"> Reloa…</text></g><g class="node" transform="translate(25.51349241026927,90.62437517736818)"><circle class="outline" cx="0" cy="0" r="25" fill="#57C7E3" stroke="#23b3d7" stroke-width="2px"/><text text-anchor="middle" pointer-events="none" font-family="sans-serif" dy="1.5625" font-size="25" fill="#2A2C34"/><text text-anchor="middle" pointer-events="none" font-family="sans-serif" dy="1.5625" font-size="25" fill="#2A2C34"/><text text-anchor="middle" pointer-events="none" x="0" y="0" font-size="10px" fill="#2A2C34" font-family="sans-serif"> The</text><text text-anchor="middle" pointer-events="none" x="0" y="10" font-size="10px" fill="#2A2C34" font-family="sans-serif"> Matrix</text></g></g></svg>