<svg xmlns="http://www.w3.org/2000/svg" width="189.23007202148438" height="213.7006378173828" viewBox="-5.3173980712890625 5.257503509521484 189.23007202148438 213.7006378173828"><title>Neo4j Graph Visualization</title><desc>Created using Neo4j (http://www.neo4j.com/)</desc><g class="layer relationships"><g class="relationship" transform="translate(23.68260285629416 83.26983797401046) rotate(351.3586778689339)"><path class="outline" fill="#A5ABB6" stroke="none" d="M 25 0.5 L 39.92101293847462 0.5 L 39.92101293847462 -0.5 L 25 -0.5 Z M 85.48351293847462 0.5 L 100.40452587694924 0.5 L 100.40452587694924 3.5 L 107.40452587694924 0 L 100.40452587694924 -3.5 L 100.40452587694924 -0.5 L 85.48351293847462 -0.5 Z"/><text text-anchor="middle" pointer-events="none" font-size="8px" fill="#000000" x="62.70226293847462" y="3" font-family="sans-serif">ACTED_IN</text></g><g class="relationship" transform="translate(23.68260285629416 83.26983797401046) rotate(328.0190980913628)"><path class="outline" fill="#A5ABB6" stroke="none" d="M 25 0.5 L 25.101809952132008 0.5 L 25.101809952132008 -0.5 L 25 -0.5 Z M 60.43774745213201 0.5 L 60.539557404264016 0.5 L 60.539557404264016 3.5 L 67.53955740426402 0 L 60.539557404264016 -3.5 L 60.539557404264016 -0.5 L 60.43774745213201 -0.5 Z"/><text text-anchor="middle" pointer-events="none" font-size="8px" fill="#000000" x="42.76977870213201" y="3" font-family="sans-serif">ACTE…</text></g><g class="relationship" transform="translate(23.68260285629416 83.26983797401046) rotate(435.95251438070454)"><path class="outline" fill="#A5ABB6" stroke="none" d="M 25 0.5 L 28.707339523238254 0.5 L 28.707339523238254 -0.5 L 25 -0.5 Z M 74.26983952323826 0.5 L 77.97717904647651 0.5 L 77.97717904647651 3.5 L 84.97717904647651 0 L 77.97717904647651 -3.5 L 77.97717904647651 -0.5 L 74.26983952323826 -0.5 Z"/><text text-anchor="middle" pointer-events="none" font-size="8px" fill="#000000" x="51.488589523238254" y="3" font-family="sans-serif">ACTED_IN</text></g><g class="relationship" transform="translate(154.91267626316528 155.78423437589356) rotate(269.7962792735005)"><path class="outline" fill="#A5ABB6" stroke="none" d="M 25 0.5 L 25.03630577936081 0.5 L 25.03630577936081 -0.5 L 25 -0.5 Z M 60.37224327936081 0.5 L 60.40854905872162 0.5 L 60.40854905872162 3.5 L 67.40854905872162 0 L 60.40854905872162 -3.5 L 60.40854905872162 -0.5 L 60.37224327936081 -0.5 Z"/><text text-anchor="middle" pointer-events="none" font-size="8px" fill="#000000" x="42.70427452936081" y="3" transform="rotate(180 42.70427452936081 0)" font-family="sans-serif">ACTE…</text></g><g class="relationship" transform="translate(154.91267626316528 155.78423437589356) rotate(246.54187972183877)"><path class="outline" fill="#A5ABB6" stroke="none" d="M 25 0.5 L 39.95658628247172 0.5 L 39.95658628247172 -0.5 L 25 -0.5 Z M 85.51908628247172 0.5 L 100.47567256494344 0.5 L 100.47567256494344 3.5 L 107.47567256494344 0 L 100.47567256494344 -3.5 L 100.47567256494344 -0.5 L 85.51908628247172 -0.5 Z"/><text text-anchor="middle" pointer-events="none" font-size="8px" fill="#000000" x="62.73783628247172" y="3" transform="rotate(180 62.73783628247172 0)" font-family="sans-serif">ACTED_IN</text></g><g class="relationship" transform="translate(154.91267626316528 155.78423437589356) rotate(521.8968546918561)"><path class="outline" fill="#A5ABB6" stroke="none" d="M 25 0.5 L 28.7087032556041 0.5 L 28.7087032556041 -0.5 L 25 -0.5 Z M 74.27120325560409 0.5 L 77.9799065112082 0.5 L 77.9799065112082 3.5 L 84.9799065112082 0 L 77.9799065112082 -3.5 L 77.9799065112082 -0.5 L 74.27120325560409 -0.5 Z"/><text text-anchor="middle" pointer-events="none" font-size="8px" fill="#000000" x="51.4899532556041" y="3" transform="rotate(180 51.4899532556041 0)" font-family="sans-serif">ACTED_IN</text></g></g><g class="layer nodes"><g class="node" transform="translate(23.68260285629416,83.26983797401046)"><circle class="outline" cx="0" cy="0" r="25" fill="#F79767" stroke="#f36924" stroke-width="2px"/><text text-anchor="middle" pointer-events="none" font-family="sans-serif" dy="1.5625" font-size="25" fill="#FFFFFF"/><text text-anchor="middle" pointer-events="none" font-family="sans-serif" dy="1.5625" font-size="25" fill="#FFFFFF"/><text text-anchor="middle" pointer-events="none" x="0" y="0" font-size="10px" fill="#FFFFFF" font-family="sans-serif"> Keanu</text><text text-anchor="middle" pointer-events="none" x="0" y="10" font-size="10px" fill="#FFFFFF" font-family="sans-serif"> Reeves</text></g><g class="node" transform="translate(154.91267626316528,155.78423437589356)"><circle class="outline" cx="0" cy="0" r="25" fill="#F79767" stroke="#f36924" stroke-width="2px"/><text text-anchor="middle" pointer-events="none" font-family="sans-serif" dy="1.5625" font-size="25" fill="#FFFFFF"/><text text-anchor="middle" pointer-events="none" font-family="sans-serif" dy="1.5625" font-size="25" fill="#FFFFFF"/><text text-anchor="middle" pointer-events="none" x="0" y="0" font-size="10px" fill="#FFFFFF" font-family="sans-serif"> Hugo</text><text text-anchor="middle" pointer-events="none" x="0" y="10" font-size="10px" fill="#FFFFFF" font-family="sans-serif"> Weaving</text></g><g class="node" transform="translate(154.58410935574634,63.37626944361345)"><circle class="outline" cx="0" cy="0" r="25" fill="#57C7E3" stroke="#23b3d7" stroke-width="2px"/><text text-anchor="middle" pointer-events="none" font-family="sans-serif" dy="1.5625" font-size="25" fill="#2A2C34"/><text text-anchor="middle" pointer-events="none" font-family="sans-serif" dy="1.5625" font-size="25" fill="#2A2C34"/><text text-anchor="middle" pointer-events="none" font-family="sans-serif" dy="1.5625" font-size="25" fill="#2A2C34"/><text text-anchor="middle" pointer-events="none" x="0" y="-5" font-size="10px" fill="#2A2C34" font-family="sans-serif"> The</text><text text-anchor="middle" pointer-events="none" x="0" y="5" font-size="10px" fill="#2A2C34" font-family="sans-serif"> Matrix</text><text text-anchor="middle" pointer-events="none" x="0" y="15" font-size="10px" fill="#2A2C34" font-family="sans-serif"> Revol…</text></g><g class="node" transform="translate(102.17693970741121,34.25750517010851)"><circle class="outline" cx="0" cy="0" r="25" fill="#57C7E3" stroke="#23b3d7" stroke-width="2px"/><text text-anchor="middle" pointer-events="none" font-family="sans-serif" dy="1.5625" font-size="25" fill="#2A2C34"/><text text-anchor="middle" pointer-events="none" font-family="sans-serif" dy="1.5625" font-size="25" fill="#2A2C34"/><text text-anchor="middle" pointer-events="none" font-family="sans-serif" dy="1.5625" font-size="25" fill="#2A2C34"/><text text-anchor="middle" pointer-events="none" x="0" y="-5" font-size="10px" fill="#2A2C34" font-family="sans-serif"> The</text><text text-anchor="middle" pointer-events="none" x="0" y="5" font-size="10px" fill="#2A2C34" font-family="sans-serif"> Matrix</text><text text-anchor="middle" pointer-events="none" x="0" y="15" font-size="10px" fill="#2A2C34" font-family="sans-serif"> Reloa…</text></g><g class="node" transform="translate(50.37692081381493,189.95813770647192)"><circle class="outline" cx="0" cy="0" r="25" fill="#57C7E3" stroke="#23b3d7" stroke-width="2px"/><text text-anchor="middle" pointer-events="none" font-family="sans-serif" dy="1.5625" font-size="25" fill="#2A2C34"/><text text-anchor="middle" pointer-events="none" font-family="sans-serif" dy="1.5625" font-size="25" fill="#2A2C34"/><text text-anchor="middle" pointer-events="none" x="0" y="0" font-size="10px" fill="#2A2C34" font-family="sans-serif"> The</text><text text-anchor="middle" pointer-events="none" x="0" y="10" font-size="10px" fill="#2A2C34" font-family="sans-serif"> Matrix</text></g></g></svg>